M48
;Layer_Color=9474304
;FILE_FORMAT=2:4
INCH,TZ
;TYPE=PLATED
T01F00S00C0.0276
T02F00S00C0.0295
T03F00S00C0.0315
T04F00S00C0.0354
T05F00S00C0.0394
T06F00S00C0.0402
T07F00S00C0.0433
T08F00S00C0.0492
%
T01
X13650Y6450
Y9452
X15051Y11450
X12049
T02
X23382Y1750
X23331Y3600
X27269
X27318Y1750
X27218Y5700
X27169Y8100
X27118Y10400
Y12750
X27169Y15100
X27018Y20400
X23082
X23231Y15100
X23182Y12750
Y10400
X23231Y8100
X23282Y5700
X15869Y13650
X11932
X10400Y17650
X6463
X1600Y23531
Y27469
X12132Y31500
X16069
X22982Y31650
X22950Y29350
X22882Y27300
X22931Y25150
X22982Y22750
X22882Y33950
X26818
X26918Y31650
X26887Y29350
X26818Y27300
X26869Y25150
X26918Y22750
T03
X3400Y14916
Y16884
X5550Y20666
Y22634
X5400Y26466
Y28434
T04
X17150Y6350
Y7350
Y8350
Y9350
Y10350
Y11350
Y12350
Y13350
X20150
Y12350
Y11350
Y10350
Y9350
Y8350
Y7350
Y6350
X15100Y15950
Y16950
Y17950
Y18950
Y19950
Y20950
X12100
Y19950
Y18950
Y17950
Y16950
Y15950
Y21950
Y22950
Y23950
Y24950
Y25950
Y26950
Y27950
Y28950
X15100
Y27950
Y26950
Y25950
Y24950
Y23950
Y22950
Y21950
X17200Y25600
Y26600
Y27600
Y28600
Y29600
Y30600
Y31600
Y32600
X20200
Y31600
Y30600
Y29600
Y28600
Y27600
Y26600
Y25600
T05
X10166Y7500
X12134
X10000Y14300
X8031
X9450Y24450
Y25450
Y26450
T06
X9200Y19300
Y20300
Y21300
X9900Y29800
Y30800
Y31800
T07
X28750Y4300
Y5300
X28600Y8900
Y9900
X30800
Y8900
X28550Y12800
Y13800
X24600Y17650
X23600
X18450Y18600
X17450
Y19600
X18450
Y20600
X17450
X17350Y16000
X18350
X15150Y7850
Y6850
X1700Y20200
Y21200
X8300Y29950
Y30950
X17600Y23150
X18600
X23150Y36350
X24150
X28550Y32750
Y31750
X28500Y28900
Y27900
X30750Y27950
Y28950
X28500Y24550
Y23550
T08
X9500Y11769
X8500
X7500
M30
