G04*
G04 #@! TF.GenerationSoftware,Altium Limited,Altium Designer,24.10.1 (45)*
G04*
G04 Layer_Physical_Order=1*
G04 Layer_Color=255*
%FSLAX25Y25*%
%MOIN*%
G70*
G04*
G04 #@! TF.SameCoordinates,74F5202C-FE61-4185-AF8E-DEFF60A961B4*
G04*
G04*
G04 #@! TF.FilePolarity,Positive*
G04*
G01*
G75*
%ADD14C,0.01000*%
%ADD17C,0.04921*%
%ADD18R,0.04921X0.04921*%
%ADD19C,0.04724*%
%ADD20R,0.04724X0.04724*%
%ADD21C,0.06102*%
%ADD22R,0.06102X0.06102*%
%ADD27C,0.05118*%
%ADD28R,0.05118X0.05118*%
%ADD31R,0.04724X0.04724*%
%ADD34R,0.04921X0.04921*%
%ADD35C,0.07480*%
%ADD36R,0.07480X0.07480*%
%ADD37C,0.01500*%
%ADD38C,0.06299*%
G04:AMPARAMS|DCode=39|XSize=62.99mil|YSize=62.99mil|CornerRadius=15.75mil|HoleSize=0mil|Usage=FLASHONLY|Rotation=90.000|XOffset=0mil|YOffset=0mil|HoleType=Round|Shape=RoundedRectangle|*
%AMROUNDEDRECTD39*
21,1,0.06299,0.03150,0,0,90.0*
21,1,0.03150,0.06299,0,0,90.0*
1,1,0.03150,0.01575,0.01575*
1,1,0.03150,0.01575,-0.01575*
1,1,0.03150,-0.01575,-0.01575*
1,1,0.03150,-0.01575,0.01575*
%
%ADD39ROUNDEDRECTD39*%
%ADD40C,0.05906*%
%ADD41R,0.05906X0.05906*%
%ADD42R,0.06299X0.06299*%
G04:AMPARAMS|DCode=43|XSize=62.99mil|YSize=62.99mil|CornerRadius=15.75mil|HoleSize=0mil|Usage=FLASHONLY|Rotation=0.000|XOffset=0mil|YOffset=0mil|HoleType=Round|Shape=RoundedRectangle|*
%AMROUNDEDRECTD43*
21,1,0.06299,0.03150,0,0,0.0*
21,1,0.03150,0.06299,0,0,0.0*
1,1,0.03150,0.01575,-0.01575*
1,1,0.03150,-0.01575,-0.01575*
1,1,0.03150,-0.01575,0.01575*
1,1,0.03150,0.01575,0.01575*
%
%ADD43ROUNDEDRECTD43*%
%ADD44R,0.06102X0.06102*%
G04:AMPARAMS|DCode=45|XSize=64.96mil|YSize=64.96mil|CornerRadius=16.24mil|HoleSize=0mil|Usage=FLASHONLY|Rotation=90.000|XOffset=0mil|YOffset=0mil|HoleType=Round|Shape=RoundedRectangle|*
%AMROUNDEDRECTD45*
21,1,0.06496,0.03248,0,0,90.0*
21,1,0.03248,0.06496,0,0,90.0*
1,1,0.03248,0.01624,0.01624*
1,1,0.03248,0.01624,-0.01624*
1,1,0.03248,-0.01624,-0.01624*
1,1,0.03248,-0.01624,0.01624*
%
%ADD45ROUNDEDRECTD45*%
%ADD46C,0.06496*%
D14*
X193248Y212028D02*
X194948Y210328D01*
X186384Y191452D02*
X189448Y194516D01*
X176000Y221215D02*
X184367Y212848D01*
X181457Y191452D02*
X186384D01*
X193248Y199972D02*
X194948Y201672D01*
X193248Y105248D02*
Y199972D01*
X189448Y194516D02*
Y201263D01*
X180667Y189833D02*
Y190661D01*
X189448Y201263D02*
X191348Y203164D01*
X191248Y143248D02*
Y200518D01*
Y211482D02*
Y273049D01*
X184500Y186000D02*
Y186000D01*
X193148Y202418D02*
Y209582D01*
X194948Y201672D02*
Y210328D01*
X191348Y203164D02*
Y208837D01*
X191248Y200518D02*
X193148Y202418D01*
X191248Y211482D02*
X193148Y209582D01*
X193248Y212028D02*
Y281049D01*
X184367Y212848D02*
X187337D01*
X191348Y208837D01*
X180667Y189833D02*
X184500Y186000D01*
X180667Y190661D02*
X181457Y191452D01*
X176000Y221215D02*
Y231500D01*
X175963Y200748D02*
X179248Y204033D01*
Y207967D01*
X153262Y233953D02*
X179248Y207967D01*
X168850Y197065D02*
X172533Y200748D01*
X175963D01*
X168850Y157152D02*
Y197065D01*
Y157152D02*
X171500Y154502D01*
X218962Y193538D02*
X236000Y176500D01*
X218962Y193538D02*
Y309038D01*
X202000Y326000D02*
X218962Y309038D01*
X149156Y293953D02*
X159750D01*
X144547Y285953D02*
Y292173D01*
X171500Y83500D02*
X193248Y105248D01*
X173844Y300453D02*
X193248Y281049D01*
X152297Y284500D02*
X155453Y281344D01*
X149703Y284500D02*
X152297D01*
X146547Y287656D02*
X149703Y284500D01*
X146547Y287656D02*
Y291344D01*
X151000Y269500D02*
X155453Y273953D01*
Y281344D01*
X144547Y292173D02*
X152827Y300453D01*
X144547Y285953D02*
X151000Y279500D01*
X152827Y300453D02*
X173844D01*
X171500Y123500D02*
X191248Y143248D01*
X173844Y280453D02*
X186000Y268297D01*
Y231500D02*
Y268297D01*
X172750Y291547D02*
X191248Y273049D01*
X162155Y291547D02*
X172750D01*
X159750Y293953D02*
X162155Y291547D01*
X160047Y280453D02*
X173844D01*
X160068Y304068D02*
X172000Y316000D01*
X127541Y304068D02*
X160068D01*
X146547Y291344D02*
X149156Y293953D01*
X150250Y233953D02*
X153262D01*
X146547Y255047D02*
X151000Y259500D01*
X146547Y237656D02*
Y255047D01*
X171500Y133500D02*
Y154502D01*
X146547Y237656D02*
X150250Y233953D01*
X149156Y225047D02*
X155453D01*
X72514Y260598D02*
X137916Y326000D01*
X172000D01*
X35682Y260598D02*
X72514D01*
X64968Y112449D02*
X99361D01*
X10350Y167067D02*
X64968Y112449D01*
X10350Y167067D02*
Y235266D01*
X35682Y260598D01*
X116547Y293074D02*
X127541Y304068D01*
X64630Y128059D02*
X75000Y117689D01*
X64630Y128059D02*
Y176500D01*
X80315Y143000D02*
Y166416D01*
X17000Y212000D02*
X66564D01*
X40082Y206650D02*
X80315Y166416D01*
X122844Y283953D02*
X136000Y270797D01*
X122095Y283953D02*
X122844D01*
X136000Y238203D02*
Y270797D01*
X121000Y285047D02*
X122095Y283953D01*
X116547Y243953D02*
Y293074D01*
X136000Y238203D02*
X149156Y225047D01*
X131000Y219500D02*
X151000D01*
X121000Y229500D02*
X131000Y219500D01*
X121000Y285047D02*
Y289500D01*
X155453Y225047D02*
X174500Y206000D01*
X151000Y289500D02*
X160047Y280453D01*
X161500Y250000D02*
Y261797D01*
X151000Y239500D02*
X161500Y250000D01*
X171250Y271547D02*
Y275250D01*
X161500Y261797D02*
X171250Y271547D01*
Y275250D02*
X172000Y276000D01*
X116547Y243953D02*
X121000Y239500D01*
X109711Y148211D02*
X121000Y159500D01*
X109711Y122799D02*
Y148211D01*
X99361Y112449D02*
X109711Y122799D01*
X12350Y210074D02*
X15775Y206650D01*
X12350Y210074D02*
Y213926D01*
X42924Y244500D01*
X94500D01*
X15775Y206650D02*
X40082D01*
X90115Y188449D02*
X102051D01*
X66564Y212000D02*
X90115Y188449D01*
X102051D02*
X121000Y169500D01*
X116626Y79716D02*
X121343Y75000D01*
X116626Y79716D02*
Y133811D01*
X119315Y136500D01*
D17*
X268685Y251500D02*
D03*
X268185Y273000D02*
D03*
X272685Y36000D02*
D03*
X273185Y17500D02*
D03*
X121315Y315000D02*
D03*
X158685Y136500D02*
D03*
X64630Y176500D02*
D03*
X16000Y235315D02*
D03*
X268870Y293500D02*
D03*
X269185Y227500D02*
D03*
X270185Y204000D02*
D03*
X268185Y339500D02*
D03*
X269185Y316500D02*
D03*
X271185Y104000D02*
D03*
X271685Y81000D02*
D03*
X272185Y57000D02*
D03*
X271685Y151000D02*
D03*
X271185Y127500D02*
D03*
D18*
X229315Y251500D02*
D03*
X228815Y273000D02*
D03*
X233315Y36000D02*
D03*
X233815Y17500D02*
D03*
X160685Y315000D02*
D03*
X119315Y136500D02*
D03*
X104000Y176500D02*
D03*
X229500Y293500D02*
D03*
X229815Y227500D02*
D03*
X230815Y204000D02*
D03*
X228815Y339500D02*
D03*
X229815Y316500D02*
D03*
X231815Y104000D02*
D03*
X232315Y81000D02*
D03*
X232815Y57000D02*
D03*
X232315Y151000D02*
D03*
X231815Y127500D02*
D03*
D19*
X136500Y94524D02*
D03*
X150512Y114500D02*
D03*
D20*
X136500Y64500D02*
D03*
D21*
X101657Y75000D02*
D03*
X92000Y203000D02*
D03*
Y193000D02*
D03*
X80315Y143000D02*
D03*
X99000Y308000D02*
D03*
Y298000D02*
D03*
D22*
X121343Y75000D02*
D03*
X100000Y143000D02*
D03*
D27*
X55500Y226343D02*
D03*
X34000Y149158D02*
D03*
X54000Y284343D02*
D03*
D28*
X55500Y206658D02*
D03*
X34000Y168842D02*
D03*
X54000Y264657D02*
D03*
D31*
X120488Y114500D02*
D03*
D34*
X16000Y274685D02*
D03*
D35*
X75000Y117689D02*
D03*
X85000D02*
D03*
D36*
X95000D02*
D03*
D37*
X125503Y157635D02*
Y174997D01*
X121000Y179500D02*
X125503Y174997D01*
X119315Y151447D02*
X125503Y157635D01*
X119315Y136500D02*
Y151447D01*
X186083Y200798D02*
X189298Y204013D01*
X179298Y200798D02*
X186083D01*
X189298Y204013D02*
Y207987D01*
X171300Y223015D02*
Y237839D01*
X174500Y196000D02*
X179298Y200798D01*
X171300Y237839D02*
X176503Y243041D01*
X183518Y210798D02*
X186487D01*
X171300Y223015D02*
X183518Y210798D01*
X186487D02*
X189298Y207987D01*
X172000Y266000D02*
X176503Y261497D01*
Y243041D02*
Y261497D01*
D38*
X308000Y99000D02*
D03*
X286000Y89000D02*
D03*
X307500Y289500D02*
D03*
X285000Y279000D02*
D03*
X94500Y244500D02*
D03*
Y254500D02*
D03*
X186000Y231500D02*
D03*
X151500Y78500D02*
D03*
X183500Y160000D02*
D03*
X17000Y212000D02*
D03*
X83000Y299500D02*
D03*
X241500Y363500D02*
D03*
X285000Y235500D02*
D03*
X285500Y327500D02*
D03*
X287500Y43000D02*
D03*
X236000Y176500D02*
D03*
X285500Y138000D02*
D03*
D39*
X308000Y89000D02*
D03*
X286000Y99000D02*
D03*
X307500Y279500D02*
D03*
X285000Y289000D02*
D03*
X151500Y68500D02*
D03*
X17000Y202000D02*
D03*
X83000Y309500D02*
D03*
X285000Y245500D02*
D03*
X285500Y317500D02*
D03*
X287500Y53000D02*
D03*
X285500Y128000D02*
D03*
D40*
X151000Y159500D02*
D03*
Y169500D02*
D03*
Y179500D02*
D03*
Y189500D02*
D03*
Y199500D02*
D03*
Y209500D02*
D03*
Y219500D02*
D03*
Y229500D02*
D03*
Y239500D02*
D03*
Y249500D02*
D03*
Y259500D02*
D03*
Y269500D02*
D03*
Y279500D02*
D03*
Y289500D02*
D03*
X121000Y159500D02*
D03*
Y169500D02*
D03*
Y179500D02*
D03*
Y189500D02*
D03*
Y199500D02*
D03*
Y209500D02*
D03*
Y219500D02*
D03*
Y229500D02*
D03*
Y239500D02*
D03*
Y249500D02*
D03*
Y259500D02*
D03*
Y269500D02*
D03*
Y279500D02*
D03*
X201500Y63500D02*
D03*
Y73500D02*
D03*
Y83500D02*
D03*
Y93500D02*
D03*
Y103500D02*
D03*
Y113500D02*
D03*
Y123500D02*
D03*
Y133500D02*
D03*
X171500Y63500D02*
D03*
Y73500D02*
D03*
Y83500D02*
D03*
Y93500D02*
D03*
Y103500D02*
D03*
Y113500D02*
D03*
Y123500D02*
D03*
X202000Y256000D02*
D03*
Y266000D02*
D03*
Y276000D02*
D03*
Y286000D02*
D03*
Y296000D02*
D03*
Y306000D02*
D03*
Y316000D02*
D03*
Y326000D02*
D03*
X172000Y256000D02*
D03*
Y266000D02*
D03*
Y276000D02*
D03*
Y286000D02*
D03*
Y296000D02*
D03*
Y306000D02*
D03*
Y316000D02*
D03*
D41*
X121000Y289500D02*
D03*
X171500Y133500D02*
D03*
X172000Y326000D02*
D03*
D42*
X94500Y264500D02*
D03*
D43*
X176000Y231500D02*
D03*
X173500Y160000D02*
D03*
X231500Y363500D02*
D03*
X246000Y176500D02*
D03*
D44*
X92000Y213000D02*
D03*
X99000Y318000D02*
D03*
D45*
X184500Y186000D02*
D03*
D46*
X174500D02*
D03*
X184500Y196000D02*
D03*
Y206000D02*
D03*
X174500Y196000D02*
D03*
Y206000D02*
D03*
M02*
