G04*
G04 #@! TF.GenerationSoftware,Altium Limited,Altium Designer,24.10.1 (45)*
G04*
G04 Layer_Color=32768*
%FSLAX25Y25*%
%MOIN*%
G70*
G04*
G04 #@! TF.SameCoordinates,74F5202C-FE61-4185-AF8E-DEFF60A961B4*
G04*
G04*
G04 #@! TF.FilePolarity,Positive*
G04*
G01*
G75*
%ADD47C,0.00394*%
D47*
X303000Y84000D02*
Y104000D01*
X313000D01*
Y84000D02*
Y104000D01*
X303000Y84000D02*
X313000D01*
X291000D02*
Y104000D01*
X281000Y84000D02*
X291000D01*
X281000D02*
Y104000D01*
X291000D01*
X302500Y274500D02*
Y294500D01*
X312500D01*
Y274500D02*
Y294500D01*
X302500Y274500D02*
X312500D01*
X290000Y274000D02*
Y294000D01*
X280000Y274000D02*
X290000D01*
X280000D02*
Y294000D01*
X290000D01*
X171000Y236500D02*
X191000D01*
Y226500D02*
Y236500D01*
X171000Y226500D02*
X191000D01*
X171000D02*
Y236500D01*
X146500Y63500D02*
Y83500D01*
X156500D01*
Y63500D02*
Y83500D01*
X146500Y63500D02*
X156500D01*
X168500Y165000D02*
X188500D01*
Y155000D02*
Y165000D01*
X168500Y155000D02*
X188500D01*
X168500D02*
Y165000D01*
X12000Y197000D02*
Y217000D01*
X22000D01*
Y197000D02*
Y217000D01*
X12000Y197000D02*
X22000D01*
X88000Y294500D02*
Y314500D01*
X78000Y294500D02*
X88000D01*
X78000D02*
Y314500D01*
X88000D01*
X169500Y181000D02*
Y211000D01*
X189500D01*
Y181000D02*
Y211000D01*
X169500Y181000D02*
X189500D01*
X226500Y368500D02*
X246500D01*
Y358500D02*
Y368500D01*
X226500Y358500D02*
X246500D01*
X226500D02*
Y368500D01*
X290000Y230500D02*
Y250500D01*
X280000Y230500D02*
X290000D01*
X280000D02*
Y250500D01*
X290000D01*
X280500Y312500D02*
Y332500D01*
X290500D01*
Y312500D02*
Y332500D01*
X280500Y312500D02*
X290500D01*
X292500Y38000D02*
Y58000D01*
X282500Y38000D02*
X292500D01*
X282500D02*
Y58000D01*
X292500D01*
X231000Y171500D02*
X251000D01*
X231000D02*
Y181500D01*
X251000D01*
Y171500D02*
Y181500D01*
X280500Y123000D02*
Y143000D01*
X290500D01*
Y123000D02*
Y143000D01*
X280500Y123000D02*
X290500D01*
M02*
