G04*
G04 #@! TF.GenerationSoftware,Altium Limited,Altium Designer,24.10.1 (45)*
G04*
G04 Layer_Color=65535*
%FSLAX25Y25*%
%MOIN*%
G70*
G04*
G04 #@! TF.SameCoordinates,74F5202C-FE61-4185-AF8E-DEFF60A961B4*
G04*
G04*
G04 #@! TF.FilePolarity,Positive*
G04*
G01*
G75*
%ADD10C,0.00984*%
%ADD11C,0.02362*%
%ADD12C,0.00787*%
%ADD13C,0.00591*%
%ADD14C,0.01000*%
D10*
X308492Y81638D02*
G03*
X308492Y81638I-492J0D01*
G01*
X286492Y106362D02*
G03*
X286492Y106362I-492J0D01*
G01*
X307992Y272138D02*
G03*
X307992Y272138I-492J0D01*
G01*
X285492Y296362D02*
G03*
X285492Y296362I-492J0D01*
G01*
X121492Y294618D02*
G03*
X121492Y294618I-492J0D01*
G01*
X94992Y277138D02*
G03*
X94992Y277138I-492J0D01*
G01*
X169130Y231500D02*
G03*
X169130Y231500I-492J0D01*
G01*
X92492Y220559D02*
G03*
X92492Y220559I-492J0D01*
G01*
X151992Y61138D02*
G03*
X151992Y61138I-492J0D01*
G01*
X166630Y160000D02*
G03*
X166630Y160000I-492J0D01*
G01*
X17492Y194638D02*
G03*
X17492Y194638I-492J0D01*
G01*
X99492Y325559D02*
G03*
X99492Y325559I-492J0D01*
G01*
X83492Y316862D02*
G03*
X83492Y316862I-492J0D01*
G01*
X184913Y178598D02*
G03*
X184913Y178598I-492J0D01*
G01*
X95531Y126409D02*
G03*
X95531Y126409I-492J0D01*
G01*
X171992Y138618D02*
G03*
X171992Y138618I-492J0D01*
G01*
X172492Y331118D02*
G03*
X172492Y331118I-492J0D01*
G01*
X224630Y363500D02*
G03*
X224630Y363500I-492J0D01*
G01*
X285492Y252862D02*
G03*
X285492Y252862I-492J0D01*
G01*
X285992Y310138D02*
G03*
X285992Y310138I-492J0D01*
G01*
X287992Y60362D02*
G03*
X287992Y60362I-492J0D01*
G01*
X253854Y176500D02*
G03*
X253854Y176500I-492J0D01*
G01*
X285992Y120638D02*
G03*
X285992Y120638I-492J0D01*
G01*
D11*
X130685Y290248D02*
G03*
X130685Y290248I-1181J0D01*
G01*
X181185Y133343D02*
G03*
X181185Y133343I-1181J0D01*
G01*
X181685Y325842D02*
G03*
X181685Y325842I-1181J0D01*
G01*
D12*
X133500Y294185D02*
G03*
X138500Y294185I2500J0D01*
G01*
X184000Y137279D02*
G03*
X189000Y137279I2500J0D01*
G01*
X184500Y329780D02*
G03*
X189500Y329780I2500J0D01*
G01*
X302705Y104591D02*
X313295D01*
X302705Y83410D02*
Y104591D01*
Y83410D02*
X313295D01*
Y104591D01*
X280705Y83410D02*
X291295D01*
Y104591D01*
X280705D02*
X291295D01*
X280705Y83410D02*
Y104591D01*
X236598Y246579D02*
Y256421D01*
Y246579D02*
X261402D01*
Y256421D01*
X236598D02*
X261402D01*
X236098Y268079D02*
Y277921D01*
Y268079D02*
X260902D01*
Y277921D01*
X236098D02*
X260902D01*
X240598Y31079D02*
Y40921D01*
Y31079D02*
X265402D01*
Y40921D01*
X240598D02*
X265402D01*
X241098Y12579D02*
Y22421D01*
Y12579D02*
X265902D01*
Y22421D01*
X241098D02*
X265902D01*
X302205Y295091D02*
X312795D01*
X302205Y273909D02*
Y295091D01*
Y273909D02*
X312795D01*
Y295091D01*
X279705Y273410D02*
X290295D01*
Y294590D01*
X279705D02*
X290295D01*
X279705Y273410D02*
Y294590D01*
X133016Y75024D02*
X139984D01*
X136500Y88488D02*
Y90587D01*
Y68437D02*
Y70535D01*
X132740D02*
X140260D01*
Y88488D01*
X132740D02*
X140260D01*
X132740Y70535D02*
Y88488D01*
X123705Y62795D02*
Y70472D01*
Y79528D02*
Y87205D01*
X99295D02*
X123705D01*
X99295Y62795D02*
Y70472D01*
Y79528D02*
Y87205D01*
Y62795D02*
X123705D01*
X125567Y154815D02*
X146433D01*
X138500Y294185D02*
X146433D01*
X125567D02*
X133500D01*
X146433Y154815D02*
Y294185D01*
X125567Y154815D02*
Y294185D01*
X103004Y234421D02*
Y274579D01*
X104972Y234421D02*
Y274579D01*
X86468Y234421D02*
Y274579D01*
Y234421D02*
X104972D01*
X86468Y274579D02*
X104972D01*
X153402Y310079D02*
Y319921D01*
X128598D02*
X153402D01*
X128598Y310079D02*
Y319921D01*
Y310079D02*
X153402D01*
X191591Y226205D02*
Y236795D01*
X170409D02*
X191591D01*
X170409Y226205D02*
Y236795D01*
Y226205D02*
X191591D01*
X41524Y201736D02*
X69476D01*
X96902Y188000D02*
Y218000D01*
X87098Y188000D02*
Y218000D01*
X96902D01*
X87098Y188000D02*
X96902D01*
X146205Y84091D02*
X156795D01*
X146205Y62910D02*
Y84091D01*
Y62910D02*
X156795D01*
Y84091D01*
X131012Y111016D02*
Y117984D01*
X144476Y114500D02*
X146575D01*
X124425D02*
X126524D01*
Y110740D02*
Y118260D01*
Y110740D02*
X144476D01*
Y118260D01*
X126524D02*
X144476D01*
X189091Y154705D02*
Y165295D01*
X167909D02*
X189091D01*
X167909Y154705D02*
Y165295D01*
Y154705D02*
X189091D01*
X126598Y131579D02*
Y141421D01*
Y131579D02*
X151402D01*
Y141421D01*
X126598D02*
X151402D01*
X20024Y173764D02*
X47976D01*
X11705Y217590D02*
X22295D01*
X11705Y196409D02*
Y217590D01*
Y196409D02*
X22295D01*
Y217590D01*
X102362Y130795D02*
Y138472D01*
Y147528D02*
Y155205D01*
X77953D02*
X102362D01*
X77953Y130795D02*
Y138472D01*
Y147528D02*
Y155205D01*
Y130795D02*
X102362D01*
X96716Y171579D02*
Y181421D01*
X71913D02*
X96716D01*
X71913Y171579D02*
Y181421D01*
Y171579D02*
X96716D01*
X103902Y293000D02*
Y323000D01*
X94098Y293000D02*
Y323000D01*
X103902D01*
X94098Y293000D02*
X103902D01*
X77705Y293910D02*
X88295D01*
Y315090D01*
X77705D02*
X88295D01*
X77705Y293910D02*
Y315090D01*
X40024Y259736D02*
X67976D01*
X169205Y211591D02*
X189795D01*
X169205Y180409D02*
Y211591D01*
X189795Y180409D02*
Y211591D01*
X169205Y180409D02*
X189795D01*
X11079Y267402D02*
X20921D01*
X11079Y242598D02*
Y267402D01*
Y242598D02*
X20921D01*
Y267402D01*
X64252Y123732D02*
X105748D01*
X64252Y105268D02*
Y123732D01*
Y105268D02*
X105748D01*
Y123732D01*
X176067Y59720D02*
X196933D01*
X189000Y137279D02*
X196933D01*
X176067D02*
X184000D01*
X196933Y59720D02*
Y137279D01*
X176067Y59720D02*
Y137279D01*
X236784Y288579D02*
Y298421D01*
Y288579D02*
X261587D01*
Y298421D01*
X236784D02*
X261587D01*
X176567Y252221D02*
X197433D01*
X189500Y329780D02*
X197433D01*
X176567D02*
X184500D01*
X197433Y252221D02*
Y329780D01*
X176567Y252221D02*
Y329780D01*
X247091Y358205D02*
Y368795D01*
X225909D02*
X247091D01*
X225909Y358205D02*
Y368795D01*
Y358205D02*
X247091D01*
X279705Y229909D02*
X290295D01*
Y251091D01*
X279705D02*
X290295D01*
X279705Y229909D02*
Y251091D01*
X237098Y222579D02*
Y232421D01*
Y222579D02*
X261902D01*
Y232421D01*
X237098D02*
X261902D01*
X238098Y199079D02*
Y208921D01*
Y199079D02*
X262902D01*
Y208921D01*
X238098D02*
X262902D01*
X236098Y334579D02*
Y344421D01*
Y334579D02*
X260902D01*
Y344421D01*
X236098D02*
X260902D01*
X280205Y333090D02*
X290795D01*
X280205Y311910D02*
Y333090D01*
Y311910D02*
X290795D01*
Y333090D01*
X237098Y311579D02*
Y321421D01*
Y311579D02*
X261902D01*
Y321421D01*
X237098D02*
X261902D01*
X239098Y99079D02*
Y108921D01*
Y99079D02*
X263902D01*
Y108921D01*
X239098D02*
X263902D01*
X239598Y76079D02*
Y85921D01*
Y76079D02*
X264402D01*
Y85921D01*
X239598D02*
X264402D01*
X282205Y37409D02*
X292795D01*
Y58591D01*
X282205D02*
X292795D01*
X282205Y37409D02*
Y58591D01*
X240098Y52079D02*
Y61921D01*
Y52079D02*
X264902D01*
Y61921D01*
X240098D02*
X264902D01*
X230410Y171205D02*
Y181795D01*
Y171205D02*
X251590D01*
Y181795D01*
X230410D02*
X251590D01*
X239598Y146079D02*
Y155921D01*
Y146079D02*
X264402D01*
Y155921D01*
X239598D02*
X264402D01*
X280205Y143591D02*
X290795D01*
X280205Y122409D02*
Y143591D01*
Y122409D02*
X290795D01*
Y143591D01*
X239098Y122579D02*
Y132421D01*
Y122579D02*
X263902D01*
Y132421D01*
X239098D02*
X263902D01*
D13*
X76169Y216500D02*
G03*
X76169Y216500I-20669J0D01*
G01*
X54669Y159000D02*
G03*
X54669Y159000I-20669J0D01*
G01*
X74669Y274500D02*
G03*
X74669Y274500I-20669J0D01*
G01*
D14*
X267500Y181997D02*
Y176999D01*
X268500Y175999D01*
X270499D01*
X271499Y176999D01*
Y181997D01*
X273498Y174000D02*
Y179998D01*
X276497D01*
X277497Y178998D01*
Y176999D01*
X276497Y175999D01*
X273498D01*
X279496D02*
X282495D01*
X283495Y176999D01*
X282495Y177999D01*
X280496D01*
X279496Y178998D01*
X280496Y179998D01*
X283495D01*
X285494Y175999D02*
X287493D01*
X286494D01*
Y179998D01*
X285494D01*
X290493Y175999D02*
X292492D01*
X291492D01*
Y181997D01*
X290493D01*
X296491Y175999D02*
X298490D01*
X299490Y176999D01*
Y178998D01*
X298490Y179998D01*
X296491D01*
X295491Y178998D01*
Y176999D01*
X296491Y175999D01*
X301489D02*
Y179998D01*
X304488D01*
X305488Y178998D01*
Y175999D01*
X304502Y116499D02*
X300503D01*
Y110501D01*
X304502D01*
X300503Y113500D02*
X302503D01*
X307501Y109501D02*
X308501Y110501D01*
Y111500D01*
X307501D01*
Y110501D01*
X308501D01*
X307501Y109501D01*
X306501Y108501D01*
X316498Y116499D02*
X312499D01*
Y113500D01*
X314499D01*
X312499D01*
Y110501D01*
X318497D02*
X320497D01*
X319497D01*
Y116499D01*
X318497Y115499D01*
X277003Y110501D02*
Y114499D01*
X279003Y116499D01*
X281002Y114499D01*
Y110501D01*
Y113500D01*
X277003D01*
X284001Y109501D02*
X285001Y110501D01*
Y111500D01*
X284001D01*
Y110501D01*
X285001D01*
X284001Y109501D01*
X283001Y108501D01*
X288999Y116499D02*
Y110501D01*
X291998D01*
X292998Y111500D01*
Y112500D01*
X291998Y113500D01*
X288999D01*
X291998D01*
X292998Y114499D01*
Y115499D01*
X291998Y116499D01*
X288999D01*
X294997Y110501D02*
X296997D01*
X295997D01*
Y116499D01*
X294997Y115499D01*
X227502Y259001D02*
Y264999D01*
X230501D01*
X231500Y263999D01*
Y262000D01*
X230501Y261000D01*
X227502D01*
X229501D02*
X231500Y259001D01*
X233500Y263999D02*
X234499Y264999D01*
X236499D01*
X237498Y263999D01*
Y263000D01*
X236499Y262000D01*
X235499D01*
X236499D01*
X237498Y261000D01*
Y260001D01*
X236499Y259001D01*
X234499D01*
X233500Y260001D01*
X226502Y280501D02*
Y286499D01*
X229501D01*
X230500Y285499D01*
Y283500D01*
X229501Y282500D01*
X226502D01*
X228501D02*
X230500Y280501D01*
X236498D02*
X232500D01*
X236498Y284500D01*
Y285499D01*
X235499Y286499D01*
X233499D01*
X232500Y285499D01*
X230002Y43501D02*
Y49499D01*
X233001D01*
X234001Y48499D01*
Y46500D01*
X233001Y45500D01*
X230002D01*
X232001D02*
X234001Y43501D01*
X236000D02*
X238000D01*
X237000D01*
Y49499D01*
X236000Y48499D01*
X240999Y43501D02*
X242998D01*
X241998D01*
Y49499D01*
X240999Y48499D01*
X231002Y3501D02*
Y9499D01*
X234001D01*
X235001Y8499D01*
Y6500D01*
X234001Y5500D01*
X231002D01*
X233002D02*
X235001Y3501D01*
X237000D02*
X239000D01*
X238000D01*
Y9499D01*
X237000Y8499D01*
X245998Y3501D02*
X241999D01*
X245998Y7500D01*
Y8499D01*
X244998Y9499D01*
X242999D01*
X241999Y8499D01*
X303502Y305499D02*
X299504D01*
Y299501D01*
X303502D01*
X299504Y302500D02*
X301503D01*
X306501Y298501D02*
X307501Y299501D01*
Y300500D01*
X306501D01*
Y299501D01*
X307501D01*
X306501Y298501D01*
X305502Y297501D01*
X315498Y305499D02*
X311500D01*
Y302500D01*
X313499D01*
X311500D01*
Y299501D01*
X321497D02*
X317498D01*
X321497Y303499D01*
Y304499D01*
X320497Y305499D01*
X318497D01*
X317498Y304499D01*
X273504Y299501D02*
Y303499D01*
X275503Y305499D01*
X277502Y303499D01*
Y299501D01*
Y302500D01*
X273504D01*
X280501Y298501D02*
X281501Y299501D01*
Y300500D01*
X280501D01*
Y299501D01*
X281501D01*
X280501Y298501D01*
X279502Y297501D01*
X285500Y305499D02*
Y299501D01*
X288499D01*
X289498Y300500D01*
Y301500D01*
X288499Y302500D01*
X285500D01*
X288499D01*
X289498Y303499D01*
Y304499D01*
X288499Y305499D01*
X285500D01*
X295497Y299501D02*
X291498D01*
X295497Y303499D01*
Y304499D01*
X294497Y305499D01*
X292497D01*
X291498Y304499D01*
X133000Y106698D02*
Y100700D01*
X135999D01*
X136999Y101700D01*
Y105698D01*
X135999Y106698D01*
X133000D01*
X138998Y100700D02*
X140997D01*
X139998D01*
Y106698D01*
X138998Y105698D01*
X102799Y95998D02*
X101799Y96998D01*
X99800D01*
X98800Y95998D01*
Y94999D01*
X99800Y93999D01*
X101799D01*
X102799Y92999D01*
Y92000D01*
X101799Y91000D01*
X99800D01*
X98800Y92000D01*
X104798Y96998D02*
Y91000D01*
X106797Y92999D01*
X108797Y91000D01*
Y96998D01*
X114795Y91000D02*
X110796D01*
X114795Y94999D01*
Y95998D01*
X113795Y96998D01*
X111796D01*
X110796Y95998D01*
X118600Y298600D02*
Y304598D01*
X120599Y302599D01*
X122599Y304598D01*
Y298600D01*
X128597Y303598D02*
X127597Y304598D01*
X125598D01*
X124598Y303598D01*
Y299600D01*
X125598Y298600D01*
X127597D01*
X128597Y299600D01*
X86400Y287098D02*
Y283099D01*
X88399Y281100D01*
X90399Y283099D01*
Y287098D01*
X92398Y281100D02*
Y287098D01*
X95397D01*
X96397Y286098D01*
Y284099D01*
X95397Y283099D01*
X92398D01*
X94397D02*
X96397Y281100D01*
X119100Y323700D02*
Y329698D01*
X122099D01*
X123099Y328698D01*
Y326699D01*
X122099Y325699D01*
X119100D01*
X121099D02*
X123099Y323700D01*
X125098D02*
X127097D01*
X126098D01*
Y329698D01*
X125098Y328698D01*
X134095Y329698D02*
X130096D01*
Y326699D01*
X132096Y327699D01*
X133096D01*
X134095Y326699D01*
Y324700D01*
X133096Y323700D01*
X131096D01*
X130096Y324700D01*
X168700Y240700D02*
Y246698D01*
X171699D01*
X172699Y245698D01*
Y243699D01*
X171699Y242699D01*
X168700D01*
X170699D02*
X172699Y240700D01*
X174698D02*
X176697D01*
X175698D01*
Y246698D01*
X174698Y245698D01*
X183695Y246698D02*
X181696Y245698D01*
X179696Y243699D01*
Y241700D01*
X180696Y240700D01*
X182695D01*
X183695Y241700D01*
Y242699D01*
X182695Y243699D01*
X179696D01*
X38999Y245998D02*
X37999Y246998D01*
X36000D01*
X35000Y245998D01*
Y242000D01*
X36000Y241000D01*
X37999D01*
X38999Y242000D01*
X40998Y245998D02*
X41998Y246998D01*
X43997D01*
X44997Y245998D01*
Y244999D01*
X43997Y243999D01*
X42997D01*
X43997D01*
X44997Y242999D01*
Y242000D01*
X43997Y241000D01*
X41998D01*
X40998Y242000D01*
X91599Y230498D02*
X87600D01*
Y224500D01*
X91599D01*
X87600Y227499D02*
X89599D01*
X93598Y228499D02*
X97597Y224500D01*
X95597Y226499D01*
X97597Y228499D01*
X93598Y224500D01*
X103595Y229498D02*
X102595Y230498D01*
X100596D01*
X99596Y229498D01*
Y225500D01*
X100596Y224500D01*
X102595D01*
X103595Y225500D01*
X105594Y230498D02*
Y224500D01*
X109593D01*
X111592Y230498D02*
Y224500D01*
Y226499D01*
X115591Y230498D01*
X112592Y227499D01*
X115591Y224500D01*
X150299Y92998D02*
X149299Y93998D01*
X147300D01*
X146300Y92998D01*
Y91999D01*
X147300Y90999D01*
X149299D01*
X150299Y89999D01*
Y89000D01*
X149299Y88000D01*
X147300D01*
X146300Y89000D01*
X153298Y88000D02*
X155297D01*
X156297Y89000D01*
Y90999D01*
X155297Y91999D01*
X153298D01*
X152298Y90999D01*
Y89000D01*
X153298Y88000D01*
X158296D02*
X160295D01*
X159296D01*
Y93998D01*
X158296D01*
X166294Y88000D02*
X164294D01*
X163294Y89000D01*
Y90999D01*
X164294Y91999D01*
X166294D01*
X167293Y90999D01*
Y89999D01*
X163294D01*
X118300Y127998D02*
Y122000D01*
X121299D01*
X122299Y123000D01*
Y126998D01*
X121299Y127998D01*
X118300D01*
X128297Y122000D02*
X124298D01*
X128297Y125999D01*
Y126998D01*
X127297Y127998D01*
X125298D01*
X124298Y126998D01*
X170199Y174198D02*
X169199Y175198D01*
X167200D01*
X166200Y174198D01*
Y173199D01*
X167200Y172199D01*
X169199D01*
X170199Y171199D01*
Y170200D01*
X169199Y169200D01*
X167200D01*
X166200Y170200D01*
X173198Y169200D02*
X175197D01*
X176197Y170200D01*
Y172199D01*
X175197Y173199D01*
X173198D01*
X172198Y172199D01*
Y170200D01*
X173198Y169200D01*
X178196Y173199D02*
Y170200D01*
X179196Y169200D01*
X182195D01*
Y173199D01*
X184194Y169200D02*
Y173199D01*
X187193D01*
X188193Y172199D01*
Y169200D01*
X194191Y175198D02*
Y169200D01*
X191192D01*
X190192Y170200D01*
Y172199D01*
X191192Y173199D01*
X194191D01*
X117100Y145200D02*
Y151198D01*
X120099D01*
X121099Y150198D01*
Y148199D01*
X120099Y147199D01*
X117100D01*
X123098Y151198D02*
Y145200D01*
X126097D01*
X127097Y146200D01*
Y150198D01*
X126097Y151198D01*
X123098D01*
X129096Y145200D02*
Y151198D01*
X132095D01*
X133095Y150198D01*
Y148199D01*
X132095Y147199D01*
X129096D01*
X131096D02*
X133095Y145200D01*
X139093D02*
X135094D01*
X139093Y149199D01*
Y150198D01*
X138093Y151198D01*
X136094D01*
X135094Y150198D01*
X17499Y188498D02*
X16499Y189498D01*
X14500D01*
X13500Y188498D01*
Y184500D01*
X14500Y183500D01*
X16499D01*
X17499Y184500D01*
X23497Y183500D02*
X19498D01*
X23497Y187499D01*
Y188498D01*
X22497Y189498D01*
X20498D01*
X19498Y188498D01*
X11800Y227498D02*
Y221500D01*
X13799Y223499D01*
X15799Y221500D01*
Y227498D01*
X17798Y221500D02*
X19797D01*
X18798D01*
Y225499D01*
X17798D01*
X22796D02*
Y221500D01*
Y223499D01*
X23796Y224499D01*
X24796Y225499D01*
X25796D01*
X31793Y221500D02*
X29794D01*
X28795Y222500D01*
Y224499D01*
X29794Y225499D01*
X31793D01*
X32793Y224499D01*
Y223499D01*
X28795D01*
X81499Y163998D02*
X80499Y164998D01*
X78500D01*
X77500Y163998D01*
Y162999D01*
X78500Y161999D01*
X80499D01*
X81499Y160999D01*
Y160000D01*
X80499Y159000D01*
X78500D01*
X77500Y160000D01*
X83498Y164998D02*
Y159000D01*
X85497Y160999D01*
X87497Y159000D01*
Y164998D01*
X89496Y159000D02*
X91496D01*
X90496D01*
Y164998D01*
X89496Y163998D01*
X62400Y185200D02*
Y191198D01*
X65399D01*
X66399Y190198D01*
Y188199D01*
X65399Y187199D01*
X62400D01*
X68398Y191198D02*
Y185200D01*
X71397D01*
X72397Y186200D01*
Y190198D01*
X71397Y191198D01*
X68398D01*
X74396Y185200D02*
Y191198D01*
X77395D01*
X78395Y190198D01*
Y188199D01*
X77395Y187199D01*
X74396D01*
X76395D02*
X78395Y185200D01*
X80394D02*
X82393D01*
X81394D01*
Y191198D01*
X80394Y190198D01*
X98599Y334498D02*
X97599Y335498D01*
X95600D01*
X94600Y334498D01*
Y333499D01*
X95600Y332499D01*
X97599D01*
X98599Y331499D01*
Y330500D01*
X97599Y329500D01*
X95600D01*
X94600Y330500D01*
X100598Y335498D02*
Y329500D01*
X102597Y331499D01*
X104597Y329500D01*
Y335498D01*
X106596Y334498D02*
X107596Y335498D01*
X109595D01*
X110595Y334498D01*
Y333499D01*
X109595Y332499D01*
X108596D01*
X109595D01*
X110595Y331499D01*
Y330500D01*
X109595Y329500D01*
X107596D01*
X106596Y330500D01*
X77800Y320800D02*
Y326798D01*
X80799D01*
X81799Y325798D01*
Y323799D01*
X80799Y322799D01*
X77800D01*
X83798Y320800D02*
X85797D01*
X84798D01*
Y326798D01*
X83798Y325798D01*
X37499Y303998D02*
X36499Y304998D01*
X34500D01*
X33500Y303998D01*
Y300000D01*
X34500Y299000D01*
X36499D01*
X37499Y300000D01*
X39498Y299000D02*
X41497D01*
X40498D01*
Y304998D01*
X39498Y303998D01*
X169300Y215500D02*
Y219499D01*
X171299Y221498D01*
X173299Y219499D01*
Y215500D01*
Y218499D01*
X169300D01*
X175298Y221498D02*
Y217499D01*
X177297Y215500D01*
X179297Y217499D01*
Y221498D01*
X181296Y215500D02*
Y221498D01*
X184295D01*
X185295Y220498D01*
Y218499D01*
X184295Y217499D01*
X181296D01*
X183296D02*
X185295Y215500D01*
X11300Y280900D02*
Y286898D01*
X14299D01*
X15299Y285898D01*
Y283899D01*
X14299Y282899D01*
X11300D01*
X13299D02*
X15299Y280900D01*
X17298D02*
X19297D01*
X18298D01*
Y286898D01*
X17298Y285898D01*
X22296Y286898D02*
X26295D01*
Y285898D01*
X22296Y281900D01*
Y280900D01*
X68499Y131400D02*
Y135398D01*
X67499Y136398D01*
X65500D01*
X64500Y135398D01*
Y131400D01*
X65500Y130400D01*
X67499D01*
X66499Y132399D02*
X68499Y130400D01*
X67499D02*
X68499Y131400D01*
X70498Y130400D02*
X72497D01*
X71498D01*
Y136398D01*
X70498Y135398D01*
X168300Y148598D02*
Y142600D01*
X171299D01*
X172299Y143600D01*
Y147598D01*
X171299Y148598D01*
X168300D01*
X178297Y147598D02*
X177297Y148598D01*
X175298D01*
X174298Y147598D01*
Y143600D01*
X175298Y142600D01*
X177297D01*
X178297Y143600D01*
X180296Y142600D02*
X182296D01*
X181296D01*
Y148598D01*
X180296Y147598D01*
X227300Y302200D02*
Y308198D01*
X230299D01*
X231299Y307198D01*
Y305199D01*
X230299Y304199D01*
X227300D01*
X229299D02*
X231299Y302200D01*
X233298D02*
X235297D01*
X234298D01*
Y308198D01*
X233298Y307198D01*
X168800Y341098D02*
Y335100D01*
X171799D01*
X172799Y336100D01*
Y340098D01*
X171799Y341098D01*
X168800D01*
X178797Y340098D02*
X177797Y341098D01*
X175798D01*
X174798Y340098D01*
Y336100D01*
X175798Y335100D01*
X177797D01*
X178797Y336100D01*
X184795Y335100D02*
X180796D01*
X184795Y339099D01*
Y340098D01*
X183795Y341098D01*
X181796D01*
X180796Y340098D01*
X224200Y372700D02*
Y378698D01*
X227199D01*
X228199Y377698D01*
Y375699D01*
X227199Y374699D01*
X224200D01*
X230198Y377698D02*
X231198Y378698D01*
X233197D01*
X234197Y377698D01*
Y376699D01*
X233197Y375699D01*
X232197D01*
X233197D01*
X234197Y374699D01*
Y373700D01*
X233197Y372700D01*
X231198D01*
X230198Y373700D01*
X236196Y378698D02*
Y372700D01*
X239195D01*
X240195Y373700D01*
Y377698D01*
X239195Y378698D01*
X236196D01*
X246193Y372700D02*
X242194D01*
X246193Y376699D01*
Y377698D01*
X245193Y378698D01*
X243194D01*
X242194Y377698D01*
X283799Y263798D02*
X282799Y264798D01*
X280800D01*
X279800Y263798D01*
Y259800D01*
X280800Y258800D01*
X282799D01*
X283799Y259800D01*
X286798Y257800D02*
X287797Y258800D01*
Y259800D01*
X286798D01*
Y258800D01*
X287797D01*
X286798Y257800D01*
X285798Y256801D01*
X291796Y264798D02*
Y258800D01*
X294795D01*
X295795Y259800D01*
Y263798D01*
X294795Y264798D01*
X291796D01*
X301793Y258800D02*
X297794D01*
X301793Y262799D01*
Y263798D01*
X300793Y264798D01*
X298794D01*
X297794Y263798D01*
X227600Y236200D02*
Y242198D01*
X230599D01*
X231599Y241198D01*
Y239199D01*
X230599Y238199D01*
X227600D01*
X229599D02*
X231599Y236200D01*
X236597D02*
Y242198D01*
X233598Y239199D01*
X237597D01*
X228600Y212700D02*
Y218698D01*
X231599D01*
X232599Y217698D01*
Y215699D01*
X231599Y214699D01*
X228600D01*
X230599D02*
X232599Y212700D01*
X238597Y218698D02*
X234598D01*
Y215699D01*
X236597Y216699D01*
X237597D01*
X238597Y215699D01*
Y213700D01*
X237597Y212700D01*
X235598D01*
X234598Y213700D01*
X226600Y348200D02*
Y354198D01*
X229599D01*
X230599Y353198D01*
Y351199D01*
X229599Y350199D01*
X226600D01*
X228599D02*
X230599Y348200D01*
X236597Y354198D02*
X234597Y353198D01*
X232598Y351199D01*
Y349200D01*
X233598Y348200D01*
X235597D01*
X236597Y349200D01*
Y350199D01*
X235597Y351199D01*
X232598D01*
X284299Y343998D02*
X283299Y344998D01*
X281300D01*
X280300Y343998D01*
Y340000D01*
X281300Y339000D01*
X283299D01*
X284299Y340000D01*
Y341999D01*
X282299D01*
X287298Y338000D02*
X288297Y339000D01*
Y340000D01*
X287298D01*
Y339000D01*
X288297D01*
X287298Y338000D01*
X286298Y337001D01*
X292296Y344998D02*
Y339000D01*
X295295D01*
X296295Y340000D01*
Y343998D01*
X295295Y344998D01*
X292296D01*
X298294Y339000D02*
Y344998D01*
X301293D01*
X302293Y343998D01*
Y341999D01*
X301293Y340999D01*
X298294D01*
X308291Y339000D02*
X304292D01*
X308291Y342999D01*
Y343998D01*
X307291Y344998D01*
X305292D01*
X304292Y343998D01*
X227600Y325200D02*
Y331198D01*
X230599D01*
X231599Y330198D01*
Y328199D01*
X230599Y327199D01*
X227600D01*
X229599D02*
X231599Y325200D01*
X233598Y331198D02*
X237597D01*
Y330198D01*
X233598Y326200D01*
Y325200D01*
X229600Y112700D02*
Y118698D01*
X232599D01*
X233599Y117698D01*
Y115699D01*
X232599Y114699D01*
X229600D01*
X231599D02*
X233599Y112700D01*
X235598Y117698D02*
X236598Y118698D01*
X238597D01*
X239597Y117698D01*
Y116699D01*
X238597Y115699D01*
X239597Y114699D01*
Y113700D01*
X238597Y112700D01*
X236598D01*
X235598Y113700D01*
Y114699D01*
X236598Y115699D01*
X235598Y116699D01*
Y117698D01*
X236598Y115699D02*
X238597D01*
X230100Y89700D02*
Y95698D01*
X233099D01*
X234099Y94698D01*
Y92699D01*
X233099Y91699D01*
X230100D01*
X232099D02*
X234099Y89700D01*
X236098Y90700D02*
X237098Y89700D01*
X239097D01*
X240097Y90700D01*
Y94698D01*
X239097Y95698D01*
X237098D01*
X236098Y94698D01*
Y93699D01*
X237098Y92699D01*
X240097D01*
X286299Y71298D02*
X285299Y72298D01*
X283300D01*
X282300Y71298D01*
Y67300D01*
X283300Y66300D01*
X285299D01*
X286299Y67300D01*
X289298Y65300D02*
X290297Y66300D01*
Y67300D01*
X289298D01*
Y66300D01*
X290297D01*
X289298Y65300D01*
X288298Y64301D01*
X294296Y72298D02*
Y66300D01*
X297295D01*
X298295Y67300D01*
Y71298D01*
X297295Y72298D01*
X294296D01*
X300294Y66300D02*
X302293D01*
X301294D01*
Y72298D01*
X300294Y71298D01*
X230600Y65700D02*
Y71698D01*
X233599D01*
X234599Y70698D01*
Y68699D01*
X233599Y67699D01*
X230600D01*
X232599D02*
X234599Y65700D01*
X236598D02*
X238597D01*
X237598D01*
Y71698D01*
X236598Y70698D01*
X241596D02*
X242596Y71698D01*
X244596D01*
X245595Y70698D01*
Y66700D01*
X244596Y65700D01*
X242596D01*
X241596Y66700D01*
Y70698D01*
X230500Y185700D02*
Y191698D01*
X233499D01*
X234499Y190698D01*
Y188699D01*
X233499Y187699D01*
X230500D01*
X240497Y185700D02*
X236498D01*
X240497Y189699D01*
Y190698D01*
X239497Y191698D01*
X237498D01*
X236498Y190698D01*
X242496Y191698D02*
Y185700D01*
X245495D01*
X246495Y186700D01*
Y190698D01*
X245495Y191698D01*
X242496D01*
X248494Y185700D02*
X250494D01*
X249494D01*
Y191698D01*
X248494Y190698D01*
X230100Y159700D02*
Y165698D01*
X233099D01*
X234099Y164698D01*
Y162699D01*
X233099Y161699D01*
X230100D01*
X232099D02*
X234099Y159700D01*
X236098D02*
X238097D01*
X237098D01*
Y165698D01*
X236098Y164698D01*
X241096D02*
X242096Y165698D01*
X244095D01*
X245095Y164698D01*
Y163699D01*
X244095Y162699D01*
X243096D01*
X244095D01*
X245095Y161699D01*
Y160700D01*
X244095Y159700D01*
X242096D01*
X241096Y160700D01*
X284299Y154498D02*
X283299Y155498D01*
X281300D01*
X280300Y154498D01*
Y150500D01*
X281300Y149500D01*
X283299D01*
X284299Y150500D01*
Y152499D01*
X282299D01*
X287298Y148500D02*
X288297Y149500D01*
Y150500D01*
X287298D01*
Y149500D01*
X288297D01*
X287298Y148500D01*
X286298Y147501D01*
X292296Y155498D02*
Y149500D01*
X295295D01*
X296295Y150500D01*
Y154498D01*
X295295Y155498D01*
X292296D01*
X298294Y149500D02*
Y155498D01*
X301293D01*
X302293Y154498D01*
Y152499D01*
X301293Y151499D01*
X298294D01*
X304292Y149500D02*
X306292D01*
X305292D01*
Y155498D01*
X304292Y154498D01*
X229600Y136200D02*
Y142198D01*
X232599D01*
X233599Y141198D01*
Y139199D01*
X232599Y138199D01*
X229600D01*
X231599D02*
X233599Y136200D01*
X235598D02*
X237597D01*
X236598D01*
Y142198D01*
X235598Y141198D01*
X243596Y136200D02*
Y142198D01*
X240596Y139199D01*
X244595D01*
M02*
