G04*
G04 #@! TF.GenerationSoftware,Altium Limited,Altium Designer,24.10.1 (45)*
G04*
G04 Layer_Color=16711935*
%FSLAX25Y25*%
%MOIN*%
G70*
G04*
G04 #@! TF.SameCoordinates,74F5202C-FE61-4185-AF8E-DEFF60A961B4*
G04*
G04*
G04 #@! TF.FilePolarity,Positive*
G04*
G01*
G75*
%ADD47C,0.00394*%
%ADD48C,0.00197*%
D47*
X249000Y249532D02*
Y253468D01*
X247031Y251500D02*
X250969D01*
X248500Y271031D02*
Y274969D01*
X246532Y273000D02*
X250468D01*
X253000Y34032D02*
Y37969D01*
X251031Y36000D02*
X254969D01*
X253500Y15531D02*
Y19468D01*
X251532Y17500D02*
X255469D01*
X134531Y79512D02*
X138469D01*
X136500Y77543D02*
Y81480D01*
X111500Y73032D02*
Y76968D01*
X109531Y75000D02*
X113469D01*
X141000Y313032D02*
Y316968D01*
X139032Y315000D02*
X142968D01*
X53531Y216500D02*
X57468D01*
X55500Y214531D02*
Y218468D01*
X135500Y112531D02*
Y116469D01*
X133531Y114500D02*
X137469D01*
X139000Y134531D02*
Y138469D01*
X137031Y136500D02*
X140969D01*
X32032Y159000D02*
X35969D01*
X34000Y157032D02*
Y160968D01*
X90158Y141032D02*
Y144968D01*
X88189Y143000D02*
X92126D01*
X84315Y174531D02*
Y178469D01*
X82346Y176500D02*
X86283D01*
X52031Y274500D02*
X55968D01*
X54000Y272532D02*
Y276468D01*
X14031Y255000D02*
X17968D01*
X16000Y253031D02*
Y256968D01*
X83031Y114500D02*
X86968D01*
X85000Y112531D02*
Y116469D01*
X249185Y291531D02*
Y295468D01*
X247217Y293500D02*
X251153D01*
X249500Y225532D02*
Y229468D01*
X247532Y227500D02*
X251468D01*
X250500Y202031D02*
Y205968D01*
X248532Y204000D02*
X252468D01*
X248500Y337531D02*
Y341469D01*
X246532Y339500D02*
X250468D01*
X249500Y314531D02*
Y318468D01*
X247532Y316500D02*
X251468D01*
X251500Y102032D02*
Y105968D01*
X249532Y104000D02*
X253468D01*
X252000Y79031D02*
Y82968D01*
X250031Y81000D02*
X253969D01*
X252500Y55032D02*
Y58969D01*
X250532Y57000D02*
X254468D01*
X252000Y149031D02*
Y152969D01*
X250031Y151000D02*
X253969D01*
X251500Y125531D02*
Y129469D01*
X249532Y127500D02*
X253468D01*
D48*
X306031Y94000D02*
X309968D01*
X308000Y92032D02*
Y95969D01*
X284032Y94000D02*
X287968D01*
X286000Y92032D02*
Y95969D01*
X305532Y284500D02*
X309469D01*
X307500Y282531D02*
Y286469D01*
X283032Y284000D02*
X286968D01*
X285000Y282031D02*
Y285968D01*
X181000Y229532D02*
Y233469D01*
X179032Y231500D02*
X182968D01*
X149531Y73500D02*
X153469D01*
X151500Y71531D02*
Y75468D01*
X178500Y158031D02*
Y161969D01*
X176532Y160000D02*
X180468D01*
X15032Y207000D02*
X18969D01*
X17000Y205031D02*
Y208968D01*
X81032Y304500D02*
X84969D01*
X83000Y302532D02*
Y306469D01*
X177532Y196000D02*
X181468D01*
X179500Y194032D02*
Y197968D01*
X236500Y361531D02*
Y365469D01*
X234531Y363500D02*
X238469D01*
X283032Y240500D02*
X286968D01*
X285000Y238531D02*
Y242469D01*
X283531Y322500D02*
X287469D01*
X285500Y320532D02*
Y324468D01*
X285531Y48000D02*
X289469D01*
X287500Y46031D02*
Y49968D01*
X241000Y174531D02*
Y178469D01*
X239032Y176500D02*
X242969D01*
X283531Y133000D02*
X287469D01*
X285500Y131032D02*
Y134968D01*
M02*
