G04*
G04 #@! TF.GenerationSoftware,Altium Limited,Altium Designer,24.10.1 (45)*
G04*
G04 Layer_Color=32768*
%FSLAX25Y25*%
%MOIN*%
G70*
G04*
G04 #@! TF.SameCoordinates,74F5202C-FE61-4185-AF8E-DEFF60A961B4*
G04*
G04*
G04 #@! TF.FilePolarity,Positive*
G04*
G01*
G75*
%ADD13C,0.00591*%
D13*
X304064Y88096D02*
Y84161D01*
X309968D01*
Y88096D01*
X307016Y84161D02*
Y86128D01*
X310952Y91048D02*
X309968Y92032D01*
X308984D01*
Y91048D01*
X309968D01*
Y92032D01*
X310952Y91048D01*
X311936Y90064D01*
X304064Y99904D02*
Y95968D01*
X307016D01*
Y97936D01*
Y95968D01*
X309968D01*
Y101872D02*
Y103839D01*
Y102855D01*
X304064D01*
X305048Y101872D01*
X284032Y103839D02*
X287968D01*
X289936Y101872D01*
X287968Y99904D01*
X284032D01*
X286984D01*
Y103839D01*
X283048Y96952D02*
X284032Y95968D01*
X285016D01*
Y96952D01*
X284032D01*
Y95968D01*
X283048Y96952D01*
X282064Y97936D01*
X289936Y92032D02*
X284032D01*
Y89080D01*
X285016Y88096D01*
X286000D01*
X286984Y89080D01*
Y92032D01*
Y89080D01*
X287968Y88096D01*
X288952D01*
X289936Y89080D01*
Y92032D01*
X284032Y86128D02*
Y84161D01*
Y85145D01*
X289936D01*
X288952Y86128D01*
X303564Y277612D02*
Y273677D01*
X309468D01*
Y277612D01*
X306516Y273677D02*
Y275645D01*
X310452Y280564D02*
X309468Y281548D01*
X308484D01*
Y280564D01*
X309468D01*
Y281548D01*
X310452Y280564D01*
X311436Y279580D01*
X303564Y289420D02*
Y285484D01*
X306516D01*
Y287452D01*
Y285484D01*
X309468D01*
Y295323D02*
Y291388D01*
X305532Y295323D01*
X304548D01*
X303564Y294339D01*
Y292372D01*
X304548Y291388D01*
X283032Y294823D02*
X286968D01*
X288936Y292855D01*
X286968Y290887D01*
X283032D01*
X285984D01*
Y294823D01*
X282048Y287936D02*
X283032Y286952D01*
X284016D01*
Y287936D01*
X283032D01*
Y286952D01*
X282048Y287936D01*
X281064Y288920D01*
X288936Y283016D02*
X283032D01*
Y280064D01*
X284016Y279080D01*
X285000D01*
X285984Y280064D01*
Y283016D01*
Y280064D01*
X286968Y279080D01*
X287952D01*
X288936Y280064D01*
Y283016D01*
X283032Y273177D02*
Y277113D01*
X286968Y273177D01*
X287952D01*
X288936Y274161D01*
Y276129D01*
X287952Y277113D01*
X173620Y228548D02*
Y234452D01*
X176572D01*
X177556Y233468D01*
Y231500D01*
X176572Y230516D01*
X173620D01*
X175588D02*
X177556Y228548D01*
X179524D02*
X181492D01*
X180508D01*
Y234452D01*
X179524Y233468D01*
X188380Y234452D02*
X186412Y233468D01*
X184444Y231500D01*
Y229532D01*
X185428Y228548D01*
X187396D01*
X188380Y229532D01*
Y230516D01*
X187396Y231500D01*
X184444D01*
X149532Y67104D02*
X148548Y66120D01*
Y64153D01*
X149532Y63169D01*
X150516D01*
X151500Y64153D01*
Y66120D01*
X152484Y67104D01*
X153468D01*
X154452Y66120D01*
Y64153D01*
X153468Y63169D01*
X154452Y70056D02*
Y72024D01*
X153468Y73008D01*
X151500D01*
X150516Y72024D01*
Y70056D01*
X151500Y69072D01*
X153468D01*
X154452Y70056D01*
Y74976D02*
Y76944D01*
Y75960D01*
X148548D01*
Y74976D01*
X154452Y82847D02*
Y80879D01*
X153468Y79896D01*
X151500D01*
X150516Y80879D01*
Y82847D01*
X151500Y83831D01*
X152484D01*
Y79896D01*
X168661Y161968D02*
X167677Y162952D01*
X165709D01*
X164725Y161968D01*
Y160984D01*
X165709Y160000D01*
X167677D01*
X168661Y159016D01*
Y158032D01*
X167677Y157048D01*
X165709D01*
X164725Y158032D01*
X171613Y157048D02*
X173580D01*
X174564Y158032D01*
Y160000D01*
X173580Y160984D01*
X171613D01*
X170628Y160000D01*
Y158032D01*
X171613Y157048D01*
X176532Y160984D02*
Y158032D01*
X177516Y157048D01*
X180468D01*
Y160984D01*
X182436Y157048D02*
Y160984D01*
X185388D01*
X186372Y160000D01*
Y157048D01*
X192275Y162952D02*
Y157048D01*
X189323D01*
X188339Y158032D01*
Y160000D01*
X189323Y160984D01*
X192275D01*
X14048Y196669D02*
X19952D01*
X17984Y198637D01*
X19952Y200604D01*
X14048D01*
X19952Y202572D02*
Y204540D01*
Y203556D01*
X16016D01*
Y202572D01*
Y207492D02*
X19952D01*
X17984D01*
X17000Y208476D01*
X16016Y209460D01*
Y210444D01*
X19952Y216347D02*
Y214380D01*
X18968Y213396D01*
X17000D01*
X16016Y214380D01*
Y216347D01*
X17000Y217331D01*
X17984D01*
Y213396D01*
X80048Y308436D02*
X85952D01*
Y305484D01*
X84968Y304500D01*
X83000D01*
X82016Y305484D01*
Y308436D01*
X80048Y302532D02*
Y300564D01*
Y301548D01*
X85952D01*
X84968Y302532D01*
X182452Y188128D02*
X178516D01*
X176548Y190096D01*
X178516Y192064D01*
X182452D01*
X179500D01*
Y188128D01*
X176548Y194032D02*
X180484D01*
X182452Y196000D01*
X180484Y197968D01*
X176548D01*
X182452Y199936D02*
X176548D01*
Y202888D01*
X177532Y203871D01*
X179500D01*
X180484Y202888D01*
Y199936D01*
Y201904D02*
X182452Y203871D01*
X225677Y360548D02*
Y366452D01*
X228628D01*
X229612Y365468D01*
Y363500D01*
X228628Y362516D01*
X225677D01*
X231580Y365468D02*
X232564Y366452D01*
X234532D01*
X235516Y365468D01*
Y364484D01*
X234532Y363500D01*
X233548D01*
X234532D01*
X235516Y362516D01*
Y361532D01*
X234532Y360548D01*
X232564D01*
X231580Y361532D01*
X237484Y366452D02*
Y360548D01*
X240436D01*
X241420Y361532D01*
Y365468D01*
X240436Y366452D01*
X237484D01*
X247323Y360548D02*
X243388D01*
X247323Y364484D01*
Y365468D01*
X246339Y366452D01*
X244372D01*
X243388Y365468D01*
X287952Y247388D02*
X288936Y248372D01*
Y250339D01*
X287952Y251323D01*
X284016D01*
X283032Y250339D01*
Y248372D01*
X284016Y247388D01*
X282048Y244436D02*
X283032Y243452D01*
X284016D01*
Y244436D01*
X283032D01*
Y243452D01*
X282048Y244436D01*
X281064Y245420D01*
X288936Y239516D02*
X283032D01*
Y236564D01*
X284016Y235580D01*
X287952D01*
X288936Y236564D01*
Y239516D01*
X283032Y229677D02*
Y233612D01*
X286968Y229677D01*
X287952D01*
X288936Y230661D01*
Y232628D01*
X287952Y233612D01*
X282548Y312661D02*
X281564Y311677D01*
Y309709D01*
X282548Y308725D01*
X286484D01*
X287468Y309709D01*
Y311677D01*
X286484Y312661D01*
X284516D01*
Y310693D01*
X288452Y315613D02*
X287468Y316596D01*
X286484D01*
Y315613D01*
X287468D01*
Y316596D01*
X288452Y315613D01*
X289436Y314629D01*
X281564Y320532D02*
X287468D01*
Y323484D01*
X286484Y324468D01*
X282548D01*
X281564Y323484D01*
Y320532D01*
X287468Y326436D02*
X281564D01*
Y329387D01*
X282548Y330371D01*
X284516D01*
X285500Y329387D01*
Y326436D01*
X287468Y336275D02*
Y332339D01*
X283532Y336275D01*
X282548D01*
X281564Y335291D01*
Y333323D01*
X282548Y332339D01*
X290452Y53904D02*
X291436Y54887D01*
Y56855D01*
X290452Y57839D01*
X286516D01*
X285532Y56855D01*
Y54887D01*
X286516Y53904D01*
X284548Y50952D02*
X285532Y49968D01*
X286516D01*
Y50952D01*
X285532D01*
Y49968D01*
X284548Y50952D01*
X283564Y51936D01*
X291436Y46032D02*
X285532D01*
Y43080D01*
X286516Y42096D01*
X290452D01*
X291436Y43080D01*
Y46032D01*
X285532Y40128D02*
Y38161D01*
Y39145D01*
X291436D01*
X290452Y40128D01*
X250839Y179452D02*
Y173548D01*
X247887D01*
X246904Y174532D01*
Y176500D01*
X247887Y177484D01*
X250839D01*
X241000Y179452D02*
X244936D01*
X241000Y175516D01*
Y174532D01*
X241984Y173548D01*
X243952D01*
X244936Y174532D01*
X239032Y173548D02*
Y179452D01*
X236080D01*
X235096Y178468D01*
Y174532D01*
X236080Y173548D01*
X239032D01*
X233128Y179452D02*
X231161D01*
X232145D01*
Y173548D01*
X233128Y174532D01*
X282548Y124145D02*
X281564Y123161D01*
Y121193D01*
X282548Y120209D01*
X286484D01*
X287468Y121193D01*
Y123161D01*
X286484Y124145D01*
X284516D01*
Y122177D01*
X288452Y127096D02*
X287468Y128080D01*
X286484D01*
Y127096D01*
X287468D01*
Y128080D01*
X288452Y127096D01*
X289436Y126112D01*
X281564Y132016D02*
X287468D01*
Y134968D01*
X286484Y135952D01*
X282548D01*
X281564Y134968D01*
Y132016D01*
X287468Y137920D02*
X281564D01*
Y140872D01*
X282548Y141855D01*
X284516D01*
X285500Y140872D01*
Y137920D01*
X287468Y143823D02*
Y145791D01*
Y144807D01*
X281564D01*
X282548Y143823D01*
M02*
