G04*
G04 #@! TF.GenerationSoftware,Altium Limited,Altium Designer,24.10.1 (45)*
G04*
G04 Layer_Color=255*
%FSLAX25Y25*%
%MOIN*%
G70*
G04*
G04 #@! TF.SameCoordinates,74F5202C-FE61-4185-AF8E-DEFF60A961B4*
G04*
G04*
G04 #@! TF.FilePolarity,Positive*
G04*
G01*
G75*
%ADD17C,0.04921*%
%ADD18R,0.04921X0.04921*%
%ADD19C,0.04724*%
%ADD20R,0.04724X0.04724*%
%ADD21C,0.06102*%
%ADD22R,0.06102X0.06102*%
%ADD27C,0.05118*%
%ADD28R,0.05118X0.05118*%
%ADD31R,0.04724X0.04724*%
%ADD34R,0.04921X0.04921*%
%ADD35C,0.07480*%
%ADD36R,0.07480X0.07480*%
%ADD38C,0.06299*%
G04:AMPARAMS|DCode=39|XSize=62.99mil|YSize=62.99mil|CornerRadius=15.75mil|HoleSize=0mil|Usage=FLASHONLY|Rotation=90.000|XOffset=0mil|YOffset=0mil|HoleType=Round|Shape=RoundedRectangle|*
%AMROUNDEDRECTD39*
21,1,0.06299,0.03150,0,0,90.0*
21,1,0.03150,0.06299,0,0,90.0*
1,1,0.03150,0.01575,0.01575*
1,1,0.03150,0.01575,-0.01575*
1,1,0.03150,-0.01575,-0.01575*
1,1,0.03150,-0.01575,0.01575*
%
%ADD39ROUNDEDRECTD39*%
%ADD40C,0.05906*%
%ADD41R,0.05906X0.05906*%
%ADD42R,0.06299X0.06299*%
G04:AMPARAMS|DCode=43|XSize=62.99mil|YSize=62.99mil|CornerRadius=15.75mil|HoleSize=0mil|Usage=FLASHONLY|Rotation=0.000|XOffset=0mil|YOffset=0mil|HoleType=Round|Shape=RoundedRectangle|*
%AMROUNDEDRECTD43*
21,1,0.06299,0.03150,0,0,0.0*
21,1,0.03150,0.06299,0,0,0.0*
1,1,0.03150,0.01575,-0.01575*
1,1,0.03150,-0.01575,-0.01575*
1,1,0.03150,-0.01575,0.01575*
1,1,0.03150,0.01575,0.01575*
%
%ADD43ROUNDEDRECTD43*%
%ADD44R,0.06102X0.06102*%
G04:AMPARAMS|DCode=45|XSize=64.96mil|YSize=64.96mil|CornerRadius=16.24mil|HoleSize=0mil|Usage=FLASHONLY|Rotation=90.000|XOffset=0mil|YOffset=0mil|HoleType=Round|Shape=RoundedRectangle|*
%AMROUNDEDRECTD45*
21,1,0.06496,0.03248,0,0,90.0*
21,1,0.03248,0.06496,0,0,90.0*
1,1,0.03248,0.01624,0.01624*
1,1,0.03248,0.01624,-0.01624*
1,1,0.03248,-0.01624,-0.01624*
1,1,0.03248,-0.01624,0.01624*
%
%ADD45ROUNDEDRECTD45*%
%ADD46C,0.06496*%
D17*
X268685Y251500D02*
D03*
X268185Y273000D02*
D03*
X272685Y36000D02*
D03*
X273185Y17500D02*
D03*
X121315Y315000D02*
D03*
X158685Y136500D02*
D03*
X64630Y176500D02*
D03*
X16000Y235315D02*
D03*
X268870Y293500D02*
D03*
X269185Y227500D02*
D03*
X270185Y204000D02*
D03*
X268185Y339500D02*
D03*
X269185Y316500D02*
D03*
X271185Y104000D02*
D03*
X271685Y81000D02*
D03*
X272185Y57000D02*
D03*
X271685Y151000D02*
D03*
X271185Y127500D02*
D03*
D18*
X229315Y251500D02*
D03*
X228815Y273000D02*
D03*
X233315Y36000D02*
D03*
X233815Y17500D02*
D03*
X160685Y315000D02*
D03*
X119315Y136500D02*
D03*
X104000Y176500D02*
D03*
X229500Y293500D02*
D03*
X229815Y227500D02*
D03*
X230815Y204000D02*
D03*
X228815Y339500D02*
D03*
X229815Y316500D02*
D03*
X231815Y104000D02*
D03*
X232315Y81000D02*
D03*
X232815Y57000D02*
D03*
X232315Y151000D02*
D03*
X231815Y127500D02*
D03*
D19*
X136500Y94524D02*
D03*
X150512Y114500D02*
D03*
D20*
X136500Y64500D02*
D03*
D21*
X101657Y75000D02*
D03*
X92000Y203000D02*
D03*
Y193000D02*
D03*
X80315Y143000D02*
D03*
X99000Y308000D02*
D03*
Y298000D02*
D03*
D22*
X121343Y75000D02*
D03*
X100000Y143000D02*
D03*
D27*
X55500Y226343D02*
D03*
X34000Y149158D02*
D03*
X54000Y284343D02*
D03*
D28*
X55500Y206658D02*
D03*
X34000Y168842D02*
D03*
X54000Y264657D02*
D03*
D31*
X120488Y114500D02*
D03*
D34*
X16000Y274685D02*
D03*
D35*
X75000Y117689D02*
D03*
X85000D02*
D03*
D36*
X95000D02*
D03*
D38*
X308000Y99000D02*
D03*
X286000Y89000D02*
D03*
X307500Y289500D02*
D03*
X285000Y279000D02*
D03*
X94500Y244500D02*
D03*
Y254500D02*
D03*
X186000Y231500D02*
D03*
X151500Y78500D02*
D03*
X183500Y160000D02*
D03*
X17000Y212000D02*
D03*
X83000Y299500D02*
D03*
X241500Y363500D02*
D03*
X285000Y235500D02*
D03*
X285500Y327500D02*
D03*
X287500Y43000D02*
D03*
X236000Y176500D02*
D03*
X285500Y138000D02*
D03*
D39*
X308000Y89000D02*
D03*
X286000Y99000D02*
D03*
X307500Y279500D02*
D03*
X285000Y289000D02*
D03*
X151500Y68500D02*
D03*
X17000Y202000D02*
D03*
X83000Y309500D02*
D03*
X285000Y245500D02*
D03*
X285500Y317500D02*
D03*
X287500Y53000D02*
D03*
X285500Y128000D02*
D03*
D40*
X151000Y159500D02*
D03*
Y169500D02*
D03*
Y179500D02*
D03*
Y189500D02*
D03*
Y199500D02*
D03*
Y209500D02*
D03*
Y219500D02*
D03*
Y229500D02*
D03*
Y239500D02*
D03*
Y249500D02*
D03*
Y259500D02*
D03*
Y269500D02*
D03*
Y279500D02*
D03*
Y289500D02*
D03*
X121000Y159500D02*
D03*
Y169500D02*
D03*
Y179500D02*
D03*
Y189500D02*
D03*
Y199500D02*
D03*
Y209500D02*
D03*
Y219500D02*
D03*
Y229500D02*
D03*
Y239500D02*
D03*
Y249500D02*
D03*
Y259500D02*
D03*
Y269500D02*
D03*
Y279500D02*
D03*
X201500Y63500D02*
D03*
Y73500D02*
D03*
Y83500D02*
D03*
Y93500D02*
D03*
Y103500D02*
D03*
Y113500D02*
D03*
Y123500D02*
D03*
Y133500D02*
D03*
X171500Y63500D02*
D03*
Y73500D02*
D03*
Y83500D02*
D03*
Y93500D02*
D03*
Y103500D02*
D03*
Y113500D02*
D03*
Y123500D02*
D03*
X202000Y256000D02*
D03*
Y266000D02*
D03*
Y276000D02*
D03*
Y286000D02*
D03*
Y296000D02*
D03*
Y306000D02*
D03*
Y316000D02*
D03*
Y326000D02*
D03*
X172000Y256000D02*
D03*
Y266000D02*
D03*
Y276000D02*
D03*
Y286000D02*
D03*
Y296000D02*
D03*
Y306000D02*
D03*
Y316000D02*
D03*
D41*
X121000Y289500D02*
D03*
X171500Y133500D02*
D03*
X172000Y326000D02*
D03*
D42*
X94500Y264500D02*
D03*
D43*
X176000Y231500D02*
D03*
X173500Y160000D02*
D03*
X231500Y363500D02*
D03*
X246000Y176500D02*
D03*
D44*
X92000Y213000D02*
D03*
X99000Y318000D02*
D03*
D45*
X184500Y186000D02*
D03*
D46*
X174500D02*
D03*
X184500Y196000D02*
D03*
Y206000D02*
D03*
X174500Y196000D02*
D03*
Y206000D02*
D03*
M02*
