G04*
G04 #@! TF.GenerationSoftware,Altium Limited,Altium Designer,24.10.1 (45)*
G04*
G04 Layer_Physical_Order=2*
G04 Layer_Color=16711680*
%FSLAX25Y25*%
%MOIN*%
G70*
G04*
G04 #@! TF.SameCoordinates,74F5202C-FE61-4185-AF8E-DEFF60A961B4*
G04*
G04*
G04 #@! TF.FilePolarity,Positive*
G04*
G01*
G75*
%ADD14C,0.01000*%
%ADD17C,0.04921*%
%ADD18R,0.04921X0.04921*%
%ADD19C,0.04724*%
%ADD20R,0.04724X0.04724*%
%ADD21C,0.06102*%
%ADD22R,0.06102X0.06102*%
%ADD27C,0.05118*%
%ADD28R,0.05118X0.05118*%
%ADD31R,0.04724X0.04724*%
%ADD34R,0.04921X0.04921*%
%ADD35C,0.07480*%
%ADD36R,0.07480X0.07480*%
%ADD37C,0.01500*%
%ADD38C,0.06299*%
G04:AMPARAMS|DCode=39|XSize=62.99mil|YSize=62.99mil|CornerRadius=15.75mil|HoleSize=0mil|Usage=FLASHONLY|Rotation=90.000|XOffset=0mil|YOffset=0mil|HoleType=Round|Shape=RoundedRectangle|*
%AMROUNDEDRECTD39*
21,1,0.06299,0.03150,0,0,90.0*
21,1,0.03150,0.06299,0,0,90.0*
1,1,0.03150,0.01575,0.01575*
1,1,0.03150,0.01575,-0.01575*
1,1,0.03150,-0.01575,-0.01575*
1,1,0.03150,-0.01575,0.01575*
%
%ADD39ROUNDEDRECTD39*%
%ADD40C,0.05906*%
%ADD41R,0.05906X0.05906*%
%ADD42R,0.06299X0.06299*%
G04:AMPARAMS|DCode=43|XSize=62.99mil|YSize=62.99mil|CornerRadius=15.75mil|HoleSize=0mil|Usage=FLASHONLY|Rotation=0.000|XOffset=0mil|YOffset=0mil|HoleType=Round|Shape=RoundedRectangle|*
%AMROUNDEDRECTD43*
21,1,0.06299,0.03150,0,0,0.0*
21,1,0.03150,0.06299,0,0,0.0*
1,1,0.03150,0.01575,-0.01575*
1,1,0.03150,-0.01575,-0.01575*
1,1,0.03150,-0.01575,0.01575*
1,1,0.03150,0.01575,0.01575*
%
%ADD43ROUNDEDRECTD43*%
%ADD44R,0.06102X0.06102*%
G04:AMPARAMS|DCode=45|XSize=64.96mil|YSize=64.96mil|CornerRadius=16.24mil|HoleSize=0mil|Usage=FLASHONLY|Rotation=90.000|XOffset=0mil|YOffset=0mil|HoleType=Round|Shape=RoundedRectangle|*
%AMROUNDEDRECTD45*
21,1,0.06496,0.03248,0,0,90.0*
21,1,0.03248,0.06496,0,0,90.0*
1,1,0.03248,0.01624,0.01624*
1,1,0.03248,0.01624,-0.01624*
1,1,0.03248,-0.01624,-0.01624*
1,1,0.03248,-0.01624,0.01624*
%
%ADD45ROUNDEDRECTD45*%
%ADD46C,0.06496*%
D14*
X176000Y304044D02*
G03*
X176303Y307147I-4000J1956D01*
G01*
X267828Y273000D02*
X279000D01*
X285000Y279000D01*
X203000Y287500D02*
X214315D01*
X228815Y273000D01*
X172000Y256000D02*
X190650Y237350D01*
X171500Y73500D02*
X192650Y94650D01*
X184500Y196000D02*
X190650Y202150D01*
Y237350D01*
X192650Y94650D02*
Y241648D01*
X173844Y260453D02*
X192650Y241648D01*
X163000Y231500D02*
X176000D01*
X179752Y201252D02*
X184500Y206000D01*
X173037Y201252D02*
X179752D01*
X170750Y64250D02*
Y67953D01*
X150512Y88191D02*
X170750Y67953D01*
Y64250D02*
X171500Y63500D01*
X125015Y70449D02*
X136500Y81934D01*
X151500Y78500D02*
Y79012D01*
X136500Y94012D02*
X151500Y79012D01*
X99772Y70449D02*
X125015D01*
X85000Y85221D02*
X99772Y70449D01*
X136500Y81934D02*
Y94012D01*
X85000Y85221D02*
Y117689D01*
X159343Y136500D02*
X182843Y160000D01*
X101657Y75000D02*
Y111800D01*
X123276Y133418D01*
X120488Y110535D02*
X136500Y94524D01*
X150512Y88191D02*
Y114500D01*
X120488Y110535D02*
Y114500D01*
X170156Y270453D02*
X172750D01*
X176000Y297956D02*
Y304044D01*
X172750Y270453D02*
X176453Y274156D01*
X162984Y260453D02*
X173844D01*
X154750Y255047D02*
X170156Y270453D01*
X176453Y274156D02*
Y297503D01*
X150250Y255047D02*
X154750D01*
X176000Y297956D02*
X176453Y297503D01*
X146547Y251344D02*
X150250Y255047D01*
X176000Y308297D02*
X176303Y307147D01*
X146547Y247656D02*
Y251344D01*
X152031Y249500D02*
X162984Y260453D01*
X149156Y245047D02*
X154281D01*
X165233Y256000D01*
X172000D01*
X151000Y249500D02*
X152031D01*
X146547Y247656D02*
X149156Y245047D01*
X151000Y209500D02*
Y219500D01*
X163000Y231500D01*
X125453Y223953D02*
Y231344D01*
Y223953D02*
X131000Y229500D01*
X121000Y219500D02*
X125453Y223953D01*
X92196Y219500D02*
X121000D01*
X121750Y235047D02*
X125453Y231344D01*
X131000Y229500D02*
X151000D01*
X171285Y199500D02*
X173037Y201252D01*
X151000Y199500D02*
X171285D01*
X157500Y196000D02*
X174500D01*
X151000Y189500D02*
X157500Y196000D01*
X168000Y179500D02*
X174500Y186000D01*
X151000Y179500D02*
X168000D01*
X151000Y169500D02*
X160500Y160000D01*
X173500D01*
X161500Y240000D02*
Y245500D01*
X151000Y229500D02*
X161500Y240000D01*
Y245500D02*
X172000Y256000D01*
X172875Y311422D02*
X176000Y308297D01*
X150732Y289768D02*
X151000Y289500D01*
X121315Y315000D02*
X146547Y289768D01*
X150732D01*
X170281Y311422D02*
X172875D01*
X166703Y315000D02*
X170281Y311422D01*
X160685Y315000D02*
X166703D01*
X136500Y94012D02*
Y94524D01*
X150512Y114500D02*
Y128327D01*
X158685Y136500D01*
X159343D01*
X182843Y160000D02*
X183500D01*
X113811Y136500D02*
X119315D01*
X95000Y117689D02*
X113811Y136500D01*
X80315Y143000D02*
X84866Y138449D01*
X122397Y140461D02*
X123276Y139582D01*
X105684Y140461D02*
X122397D01*
X84866Y138449D02*
X103673D01*
X105684Y140461D01*
X123276Y133418D02*
Y139582D01*
X136500Y64500D02*
X140500Y68500D01*
X151500D01*
X100000Y143000D02*
X104000Y147000D01*
Y176500D01*
X108000D02*
X121000Y189500D01*
X104000Y176500D02*
X108000D01*
X53819Y230402D02*
X81295D01*
X51441Y228024D02*
X53819Y230402D01*
X51441Y220400D02*
Y228024D01*
Y220400D02*
X55500Y216341D01*
Y206658D02*
Y216341D01*
X81295Y230402D02*
X92196Y219500D01*
X92000Y193000D02*
X114500D01*
X121000Y199500D01*
X69985Y170985D02*
X92000Y193000D01*
X55827Y170985D02*
X69985D01*
X34000Y149158D02*
X55827Y170985D01*
X34000Y168842D02*
X41658Y176500D01*
X64630D01*
X55500Y206658D02*
X64630Y197528D01*
Y176500D02*
Y197528D01*
X68843Y213000D02*
X92000D01*
X55500Y226343D02*
X68843Y213000D01*
X92000D02*
X117500D01*
X121000Y209500D01*
X94500Y254500D02*
X113953Y235047D01*
X121750D01*
X84342Y264657D02*
X94500Y254500D01*
X54000Y264657D02*
X84342D01*
X94500Y244500D02*
X109500Y229500D01*
X121000D01*
X17000Y202000D02*
X59500Y244500D01*
X94500D01*
X16500Y212500D02*
Y234815D01*
X16000Y235315D02*
X16500Y234815D01*
Y212500D02*
X17000Y212000D01*
X16000Y274685D02*
X43972D01*
X54000Y264657D01*
X99000Y269000D02*
Y298000D01*
X94500Y264500D02*
X99000Y269000D01*
X88076Y298000D02*
X99000D01*
X74418Y284343D02*
X88076Y298000D01*
X54000Y284343D02*
X74418D01*
X16000Y274685D02*
X40815Y299500D01*
X83000D01*
X98787Y308213D02*
X99000Y308000D01*
X83000Y309500D02*
X84287Y308213D01*
X98787D01*
X308000Y52315D02*
Y89000D01*
X273185Y17500D02*
X308000Y52315D01*
X272685Y36000D02*
X280500D01*
X287500Y43000D01*
X283500Y57000D02*
X287500Y53000D01*
X272185Y57000D02*
X283500D01*
X271685Y81000D02*
X278000D01*
X286000Y89000D01*
X271185Y104000D02*
X281000D01*
X286000Y99000D01*
X285000Y127500D02*
X285500Y128000D01*
X271185Y127500D02*
X285000D01*
X308000Y99000D02*
Y122075D01*
X279076Y151000D02*
X308000Y122075D01*
X271685Y151000D02*
X279076D01*
X229354Y28870D02*
Y35146D01*
Y28870D02*
X233815Y24409D01*
X202000Y62500D02*
X229354Y35146D01*
X233815Y17500D02*
Y24409D01*
X202000Y72500D02*
X233315Y41185D01*
Y36000D02*
Y41185D01*
X202000Y82500D02*
X207315D01*
X232815Y57000D01*
X220815Y92500D02*
X232315Y81000D01*
X202000Y92500D02*
X220815D01*
X230315Y102500D02*
X231815Y104000D01*
X202000Y102500D02*
X230315D01*
X202000Y112500D02*
X217000Y127500D01*
X231815D01*
X228539Y149039D02*
X230354D01*
X232315Y151000D01*
X202000Y122500D02*
X228539Y149039D01*
X202000Y132500D02*
X236000Y166500D01*
Y176500D01*
X246000D01*
X307500Y241315D02*
Y279500D01*
X270185Y204000D02*
X307500Y241315D01*
X269185Y227500D02*
X277185Y235500D01*
X285000D01*
X268685Y251500D02*
X279000D01*
X285000Y245500D01*
X280500Y293500D02*
X285000Y289000D01*
X268870Y293500D02*
X280500D01*
X269185Y316500D02*
X284500D01*
X285500Y317500D01*
X307500Y289500D02*
Y312075D01*
X280076Y339500D02*
X307500Y312075D01*
X268185Y339500D02*
X280076D01*
X203000Y231815D02*
X230815Y204000D01*
X203000Y231815D02*
Y257500D01*
X229815Y227500D02*
Y236982D01*
X203000Y267500D02*
X203750Y266750D01*
Y263047D02*
Y266750D01*
Y263047D02*
X229815Y236982D01*
X203000Y277500D02*
X203315D01*
X229315Y251500D01*
X225500Y297500D02*
X229500Y293500D01*
X203000Y297500D02*
X225500D01*
X220815Y307500D02*
X229815Y316500D01*
X203000Y307500D02*
X220815D01*
X225000Y339500D02*
X228815D01*
X203000Y317500D02*
X225000Y339500D01*
X231500Y363500D02*
X241500D01*
X231500Y356000D02*
Y363500D01*
X203000Y327500D02*
X231500Y356000D01*
D17*
X268685Y251500D02*
D03*
X268185Y273000D02*
D03*
X272685Y36000D02*
D03*
X273185Y17500D02*
D03*
X121315Y315000D02*
D03*
X158685Y136500D02*
D03*
X64630Y176500D02*
D03*
X16000Y235315D02*
D03*
X268870Y293500D02*
D03*
X269185Y227500D02*
D03*
X270185Y204000D02*
D03*
X268185Y339500D02*
D03*
X269185Y316500D02*
D03*
X271185Y104000D02*
D03*
X271685Y81000D02*
D03*
X272185Y57000D02*
D03*
X271685Y151000D02*
D03*
X271185Y127500D02*
D03*
D18*
X229315Y251500D02*
D03*
X228815Y273000D02*
D03*
X233315Y36000D02*
D03*
X233815Y17500D02*
D03*
X160685Y315000D02*
D03*
X119315Y136500D02*
D03*
X104000Y176500D02*
D03*
X229500Y293500D02*
D03*
X229815Y227500D02*
D03*
X230815Y204000D02*
D03*
X228815Y339500D02*
D03*
X229815Y316500D02*
D03*
X231815Y104000D02*
D03*
X232315Y81000D02*
D03*
X232815Y57000D02*
D03*
X232315Y151000D02*
D03*
X231815Y127500D02*
D03*
D19*
X136500Y94524D02*
D03*
X150512Y114500D02*
D03*
D20*
X136500Y64500D02*
D03*
D21*
X101657Y75000D02*
D03*
X92000Y203000D02*
D03*
Y193000D02*
D03*
X80315Y143000D02*
D03*
X99000Y308000D02*
D03*
Y298000D02*
D03*
D22*
X121343Y75000D02*
D03*
X100000Y143000D02*
D03*
D27*
X55500Y226343D02*
D03*
X34000Y149158D02*
D03*
X54000Y284343D02*
D03*
D28*
X55500Y206658D02*
D03*
X34000Y168842D02*
D03*
X54000Y264657D02*
D03*
D31*
X120488Y114500D02*
D03*
D34*
X16000Y274685D02*
D03*
D35*
X75000Y117689D02*
D03*
X85000D02*
D03*
D36*
X95000D02*
D03*
D37*
X179702Y191202D02*
X184500Y196000D01*
X179702Y177473D02*
Y191202D01*
Y177473D02*
X183500Y173675D01*
Y160000D02*
Y173675D01*
D38*
X308000Y99000D02*
D03*
X286000Y89000D02*
D03*
X307500Y289500D02*
D03*
X285000Y279000D02*
D03*
X94500Y244500D02*
D03*
Y254500D02*
D03*
X186000Y231500D02*
D03*
X151500Y78500D02*
D03*
X183500Y160000D02*
D03*
X17000Y212000D02*
D03*
X83000Y299500D02*
D03*
X241500Y363500D02*
D03*
X285000Y235500D02*
D03*
X285500Y327500D02*
D03*
X287500Y43000D02*
D03*
X236000Y176500D02*
D03*
X285500Y138000D02*
D03*
D39*
X308000Y89000D02*
D03*
X286000Y99000D02*
D03*
X307500Y279500D02*
D03*
X285000Y289000D02*
D03*
X151500Y68500D02*
D03*
X17000Y202000D02*
D03*
X83000Y309500D02*
D03*
X285000Y245500D02*
D03*
X285500Y317500D02*
D03*
X287500Y53000D02*
D03*
X285500Y128000D02*
D03*
D40*
X151000Y159500D02*
D03*
Y169500D02*
D03*
Y179500D02*
D03*
Y189500D02*
D03*
Y199500D02*
D03*
Y209500D02*
D03*
Y219500D02*
D03*
Y229500D02*
D03*
Y239500D02*
D03*
Y249500D02*
D03*
Y259500D02*
D03*
Y269500D02*
D03*
Y279500D02*
D03*
Y289500D02*
D03*
X121000Y159500D02*
D03*
Y169500D02*
D03*
Y179500D02*
D03*
Y189500D02*
D03*
Y199500D02*
D03*
Y209500D02*
D03*
Y219500D02*
D03*
Y229500D02*
D03*
Y239500D02*
D03*
Y249500D02*
D03*
Y259500D02*
D03*
Y269500D02*
D03*
Y279500D02*
D03*
X201500Y63500D02*
D03*
Y73500D02*
D03*
Y83500D02*
D03*
Y93500D02*
D03*
Y103500D02*
D03*
Y113500D02*
D03*
Y123500D02*
D03*
Y133500D02*
D03*
X171500Y63500D02*
D03*
Y73500D02*
D03*
Y83500D02*
D03*
Y93500D02*
D03*
Y103500D02*
D03*
Y113500D02*
D03*
Y123500D02*
D03*
X202000Y256000D02*
D03*
Y266000D02*
D03*
Y276000D02*
D03*
Y286000D02*
D03*
Y296000D02*
D03*
Y306000D02*
D03*
Y316000D02*
D03*
Y326000D02*
D03*
X172000Y256000D02*
D03*
Y266000D02*
D03*
Y276000D02*
D03*
Y286000D02*
D03*
Y296000D02*
D03*
Y306000D02*
D03*
Y316000D02*
D03*
D41*
X121000Y289500D02*
D03*
X171500Y133500D02*
D03*
X172000Y326000D02*
D03*
D42*
X94500Y264500D02*
D03*
D43*
X176000Y231500D02*
D03*
X173500Y160000D02*
D03*
X231500Y363500D02*
D03*
X246000Y176500D02*
D03*
D44*
X92000Y213000D02*
D03*
X99000Y318000D02*
D03*
D45*
X184500Y186000D02*
D03*
D46*
X174500D02*
D03*
X184500Y196000D02*
D03*
Y206000D02*
D03*
X174500Y196000D02*
D03*
Y206000D02*
D03*
M02*
