G04*
G04 #@! TF.GenerationSoftware,Altium Limited,Altium Designer,24.10.1 (45)*
G04*
G04 Layer_Color=8388736*
%FSLAX25Y25*%
%MOIN*%
G70*
G04*
G04 #@! TF.SameCoordinates,CF0DEB23-49E1-4CDD-ABF9-115A54F9760B*
G04*
G04*
G04 #@! TF.FilePolarity,Negative*
G04*
G01*
G75*
%ADD13C,0.07099*%
G04:AMPARAMS|DCode=14|XSize=70.99mil|YSize=70.99mil|CornerRadius=19.75mil|HoleSize=0mil|Usage=FLASHONLY|Rotation=90.000|XOffset=0mil|YOffset=0mil|HoleType=Round|Shape=RoundedRectangle|*
%AMROUNDEDRECTD14*
21,1,0.07099,0.03150,0,0,90.0*
21,1,0.03150,0.07099,0,0,90.0*
1,1,0.03950,0.01575,0.01575*
1,1,0.03950,0.01575,-0.01575*
1,1,0.03950,-0.01575,-0.01575*
1,1,0.03950,-0.01575,0.01575*
%
%ADD14ROUNDEDRECTD14*%
G04:AMPARAMS|DCode=15|XSize=70.99mil|YSize=70.99mil|CornerRadius=19.75mil|HoleSize=0mil|Usage=FLASHONLY|Rotation=180.000|XOffset=0mil|YOffset=0mil|HoleType=Round|Shape=RoundedRectangle|*
%AMROUNDEDRECTD15*
21,1,0.07099,0.03150,0,0,180.0*
21,1,0.03150,0.07099,0,0,180.0*
1,1,0.03950,-0.01575,0.01575*
1,1,0.03950,0.01575,0.01575*
1,1,0.03950,0.01575,-0.01575*
1,1,0.03950,-0.01575,-0.01575*
%
%ADD15ROUNDEDRECTD15*%
%ADD16C,0.06102*%
%ADD17R,0.06102X0.06102*%
D13*
X181000Y71500D02*
D03*
X165000Y60500D02*
D03*
X29000Y67500D02*
D03*
X11500Y57000D02*
D03*
X76000Y115500D02*
D03*
X116000Y115000D02*
D03*
X136000Y114500D02*
D03*
X56000Y116000D02*
D03*
X131500Y10500D02*
D03*
X73500Y12000D02*
D03*
D14*
X181000Y61500D02*
D03*
X165000Y70500D02*
D03*
X29000Y57500D02*
D03*
X11500Y67000D02*
D03*
D15*
X86000Y115500D02*
D03*
X106000Y115000D02*
D03*
X146000Y114500D02*
D03*
X46000Y116000D02*
D03*
X121500Y10500D02*
D03*
X63500Y12000D02*
D03*
D16*
X46000Y93500D02*
D03*
X56000D02*
D03*
X66000D02*
D03*
X76000D02*
D03*
X86000D02*
D03*
Y33500D02*
D03*
X76000D02*
D03*
X66000D02*
D03*
X56000D02*
D03*
X106500Y92500D02*
D03*
X116500D02*
D03*
X126500D02*
D03*
X136500D02*
D03*
X146500D02*
D03*
Y32500D02*
D03*
X136500D02*
D03*
X126500D02*
D03*
X116500D02*
D03*
D17*
X46000Y33500D02*
D03*
X106500Y32500D02*
D03*
M02*
