G04*
G04 #@! TF.GenerationSoftware,Altium Limited,Altium Designer,24.10.1 (45)*
G04*
G04 Layer_Physical_Order=2*
G04 Layer_Color=16711680*
%FSLAX25Y25*%
%MOIN*%
G70*
G04*
G04 #@! TF.SameCoordinates,CF0DEB23-49E1-4CDD-ABF9-115A54F9760B*
G04*
G04*
G04 #@! TF.FilePolarity,Positive*
G04*
G01*
G75*
%ADD12C,0.01000*%
%ADD16C,0.06102*%
%ADD17R,0.06102X0.06102*%
%ADD18C,0.06299*%
G04:AMPARAMS|DCode=19|XSize=62.99mil|YSize=62.99mil|CornerRadius=15.75mil|HoleSize=0mil|Usage=FLASHONLY|Rotation=90.000|XOffset=0mil|YOffset=0mil|HoleType=Round|Shape=RoundedRectangle|*
%AMROUNDEDRECTD19*
21,1,0.06299,0.03150,0,0,90.0*
21,1,0.03150,0.06299,0,0,90.0*
1,1,0.03150,0.01575,0.01575*
1,1,0.03150,0.01575,-0.01575*
1,1,0.03150,-0.01575,-0.01575*
1,1,0.03150,-0.01575,0.01575*
%
%ADD19ROUNDEDRECTD19*%
G04:AMPARAMS|DCode=20|XSize=62.99mil|YSize=62.99mil|CornerRadius=15.75mil|HoleSize=0mil|Usage=FLASHONLY|Rotation=180.000|XOffset=0mil|YOffset=0mil|HoleType=Round|Shape=RoundedRectangle|*
%AMROUNDEDRECTD20*
21,1,0.06299,0.03150,0,0,180.0*
21,1,0.03150,0.06299,0,0,180.0*
1,1,0.03150,-0.01575,0.01575*
1,1,0.03150,0.01575,0.01575*
1,1,0.03150,0.01575,-0.01575*
1,1,0.03150,-0.01575,-0.01575*
%
%ADD20ROUNDEDRECTD20*%
D12*
X25400Y80900D02*
X43400D01*
X56000Y93500D01*
X11500Y67000D02*
X25400Y80900D01*
X11500Y57000D02*
X35000Y33500D01*
X46000D01*
X54650Y44850D02*
X66000Y33500D01*
X41650Y44850D02*
X54650D01*
X29000Y57500D02*
X41650Y44850D01*
X29000Y67500D02*
X40000D01*
X66000Y93500D01*
X63500Y12000D02*
Y26000D01*
X56000Y33500D02*
X63500Y26000D01*
X73500Y12000D02*
Y29619D01*
X76000Y32119D01*
Y33500D01*
X116500Y15500D02*
X121500Y10500D01*
X116500Y15500D02*
Y32500D01*
X131500Y10500D02*
Y27500D01*
X136500Y32500D01*
X126500D02*
X140350Y46350D01*
X165850D01*
X181000Y61500D01*
X126500Y92500D02*
X136981Y82019D01*
X170481D01*
X181000Y71500D01*
X116500Y92500D02*
X138500Y70500D01*
X165000D01*
X134500Y60500D02*
X165000D01*
X106500Y32500D02*
X134500Y60500D01*
X146500Y92500D02*
Y114000D01*
X146000Y114500D02*
X146500Y114000D01*
X136250Y92750D02*
X136500Y92500D01*
X136000Y114500D02*
X136250Y114250D01*
Y92750D02*
Y114250D01*
X106500Y92500D02*
X116000Y102000D01*
Y115000D01*
X86000Y93500D02*
Y115500D01*
X76000Y93500D02*
Y115500D01*
X46000Y93500D02*
X56000Y103500D01*
Y116000D01*
D16*
X46000Y93500D02*
D03*
X56000D02*
D03*
X66000D02*
D03*
X76000D02*
D03*
X86000D02*
D03*
Y33500D02*
D03*
X76000D02*
D03*
X66000D02*
D03*
X56000D02*
D03*
X106500Y92500D02*
D03*
X116500D02*
D03*
X126500D02*
D03*
X136500D02*
D03*
X146500D02*
D03*
Y32500D02*
D03*
X136500D02*
D03*
X126500D02*
D03*
X116500D02*
D03*
D17*
X46000Y33500D02*
D03*
X106500Y32500D02*
D03*
D18*
X181000Y71500D02*
D03*
X165000Y60500D02*
D03*
X29000Y67500D02*
D03*
X11500Y57000D02*
D03*
X76000Y115500D02*
D03*
X116000Y115000D02*
D03*
X136000Y114500D02*
D03*
X56000Y116000D02*
D03*
X131500Y10500D02*
D03*
X73500Y12000D02*
D03*
D19*
X181000Y61500D02*
D03*
X165000Y70500D02*
D03*
X29000Y57500D02*
D03*
X11500Y67000D02*
D03*
D20*
X86000Y115500D02*
D03*
X106000Y115000D02*
D03*
X146000Y114500D02*
D03*
X46000Y116000D02*
D03*
X121500Y10500D02*
D03*
X63500Y12000D02*
D03*
M02*
