G04*
G04 #@! TF.GenerationSoftware,Altium Limited,Altium Designer,24.10.1 (45)*
G04*
G04 Layer_Color=32768*
%FSLAX25Y25*%
%MOIN*%
G70*
G04*
G04 #@! TF.SameCoordinates,CF0DEB23-49E1-4CDD-ABF9-115A54F9760B*
G04*
G04*
G04 #@! TF.FilePolarity,Positive*
G04*
G01*
G75*
%ADD22C,0.00394*%
D22*
X176000Y56500D02*
Y76500D01*
X186000D01*
Y56500D02*
Y76500D01*
X176000Y56500D02*
X186000D01*
X170000Y55500D02*
Y75500D01*
X160000Y55500D02*
X170000D01*
X160000D02*
Y75500D01*
X170000D01*
X24000Y52500D02*
Y72500D01*
X34000D01*
Y52500D02*
Y72500D01*
X24000Y52500D02*
X34000D01*
X16500Y52000D02*
Y72000D01*
X6500Y52000D02*
X16500D01*
X6500D02*
Y72000D01*
X16500D01*
X71000Y110500D02*
X91000D01*
X71000D02*
Y120500D01*
X91000D01*
Y110500D02*
Y120500D01*
X101000Y120000D02*
X121000D01*
Y110000D02*
Y120000D01*
X101000Y110000D02*
X121000D01*
X101000D02*
Y120000D01*
X131000Y109500D02*
X151000D01*
X131000D02*
Y119500D01*
X151000D01*
Y109500D02*
Y119500D01*
X41000Y121000D02*
X61000D01*
Y111000D02*
Y121000D01*
X41000Y111000D02*
X61000D01*
X41000D02*
Y121000D01*
X116500Y15500D02*
X136500D01*
Y5500D02*
Y15500D01*
X116500Y5500D02*
X136500D01*
X116500D02*
Y15500D01*
X58500Y17000D02*
X78500D01*
Y7000D02*
Y17000D01*
X58500Y7000D02*
X78500D01*
X58500D02*
Y17000D01*
M02*
