G04*
G04 #@! TF.GenerationSoftware,Altium Limited,Altium Designer,24.10.1 (45)*
G04*
G04 Layer_Color=16711935*
%FSLAX25Y25*%
%MOIN*%
G70*
G04*
G04 #@! TF.SameCoordinates,CF0DEB23-49E1-4CDD-ABF9-115A54F9760B*
G04*
G04*
G04 #@! TF.FilePolarity,Positive*
G04*
G01*
G75*
%ADD11C,0.00787*%
G36*
X69458Y65364D02*
X69483D01*
X69512Y65362D01*
X69544Y65358D01*
X69579Y65354D01*
X69616Y65350D01*
X69655Y65344D01*
X69739Y65328D01*
X69823Y65305D01*
X69866Y65291D01*
X69907Y65274D01*
X69909D01*
X69918Y65270D01*
X69928Y65264D01*
X69942Y65258D01*
X69961Y65248D01*
X69981Y65237D01*
X70004Y65223D01*
X70030Y65207D01*
X70055Y65190D01*
X70082Y65170D01*
X70110Y65147D01*
X70137Y65125D01*
X70190Y65069D01*
X70215Y65040D01*
X70237Y65008D01*
X70239Y65006D01*
X70241Y65000D01*
X70248Y64989D01*
X70256Y64977D01*
X70264Y64961D01*
X70274Y64940D01*
X70284Y64917D01*
X70297Y64893D01*
X70307Y64864D01*
X70319Y64836D01*
X70330Y64803D01*
X70338Y64768D01*
X70354Y64692D01*
X70360Y64653D01*
X70362Y64612D01*
X70043Y64587D01*
Y64590D01*
X70041Y64598D01*
X70038Y64610D01*
X70037Y64626D01*
X70032Y64647D01*
X70026Y64670D01*
X70020Y64694D01*
X70010Y64723D01*
X69987Y64780D01*
X69973Y64811D01*
X69956Y64840D01*
X69938Y64870D01*
X69918Y64897D01*
X69893Y64924D01*
X69866Y64948D01*
X69864Y64950D01*
X69860Y64954D01*
X69850Y64961D01*
X69838Y64967D01*
X69823Y64977D01*
X69803Y64987D01*
X69780Y64998D01*
X69756Y65010D01*
X69725Y65022D01*
X69692Y65032D01*
X69657Y65043D01*
X69618Y65053D01*
X69575Y65059D01*
X69528Y65065D01*
X69479Y65069D01*
X69425Y65071D01*
X69397D01*
X69376Y65069D01*
X69352Y65067D01*
X69323Y65065D01*
X69290Y65061D01*
X69257Y65057D01*
X69184Y65045D01*
X69110Y65024D01*
X69075Y65012D01*
X69042Y64995D01*
X69011Y64979D01*
X68983Y64959D01*
X68981Y64956D01*
X68977Y64954D01*
X68971Y64948D01*
X68962Y64938D01*
X68950Y64928D01*
X68940Y64916D01*
X68915Y64885D01*
X68888Y64846D01*
X68868Y64799D01*
X68858Y64774D01*
X68852Y64747D01*
X68848Y64721D01*
X68845Y64692D01*
Y64690D01*
Y64686D01*
Y64680D01*
X68848Y64670D01*
Y64657D01*
X68852Y64645D01*
X68858Y64614D01*
X68870Y64577D01*
X68886Y64540D01*
X68911Y64503D01*
X68925Y64485D01*
X68942Y64469D01*
X68944D01*
X68946Y64464D01*
X68954Y64460D01*
X68964Y64454D01*
X68977Y64446D01*
X68995Y64436D01*
X69016Y64425D01*
X69042Y64413D01*
X69073Y64401D01*
X69108Y64387D01*
X69151Y64370D01*
X69196Y64356D01*
X69249Y64339D01*
X69309Y64323D01*
X69374Y64305D01*
X69448Y64288D01*
X69452D01*
X69458Y64286D01*
X69467Y64284D01*
X69487Y64280D01*
X69514Y64272D01*
X69547Y64266D01*
X69586Y64255D01*
X69626Y64245D01*
X69672Y64233D01*
X69764Y64208D01*
X69811Y64196D01*
X69856Y64182D01*
X69899Y64167D01*
X69940Y64155D01*
X69977Y64141D01*
X70008Y64128D01*
X70010Y64126D01*
X70018Y64124D01*
X70028Y64118D01*
X70045Y64110D01*
X70061Y64100D01*
X70084Y64087D01*
X70106Y64073D01*
X70131Y64059D01*
X70184Y64020D01*
X70237Y63977D01*
X70289Y63925D01*
X70311Y63899D01*
X70332Y63870D01*
X70334Y63868D01*
X70336Y63864D01*
X70342Y63854D01*
X70348Y63843D01*
X70356Y63827D01*
X70364Y63810D01*
X70375Y63790D01*
X70385Y63767D01*
X70395Y63741D01*
X70405Y63714D01*
X70414Y63683D01*
X70422Y63653D01*
X70434Y63585D01*
X70436Y63548D01*
X70438Y63511D01*
Y63509D01*
Y63503D01*
Y63491D01*
X70436Y63476D01*
X70434Y63460D01*
X70432Y63437D01*
X70428Y63415D01*
X70424Y63388D01*
X70418Y63359D01*
X70410Y63331D01*
X70401Y63298D01*
X70389Y63267D01*
X70375Y63232D01*
X70360Y63200D01*
X70342Y63165D01*
X70321Y63132D01*
X70319Y63130D01*
X70315Y63124D01*
X70309Y63116D01*
X70301Y63103D01*
X70289Y63089D01*
X70274Y63070D01*
X70256Y63052D01*
X70237Y63032D01*
X70215Y63009D01*
X70190Y62989D01*
X70164Y62964D01*
X70133Y62941D01*
X70100Y62919D01*
X70065Y62898D01*
X70028Y62876D01*
X69989Y62857D01*
X69987Y62855D01*
X69979Y62853D01*
X69967Y62849D01*
X69952Y62843D01*
X69932Y62835D01*
X69907Y62827D01*
X69879Y62818D01*
X69848Y62808D01*
X69813Y62800D01*
X69776Y62790D01*
X69735Y62781D01*
X69694Y62775D01*
X69649Y62767D01*
X69602Y62763D01*
X69553Y62761D01*
X69503Y62759D01*
X69471D01*
X69446Y62761D01*
X69417D01*
X69383Y62765D01*
X69346Y62767D01*
X69302Y62771D01*
X69260Y62777D01*
X69212Y62783D01*
X69116Y62800D01*
X69022Y62824D01*
X68975Y62841D01*
X68929Y62857D01*
X68927Y62859D01*
X68919Y62861D01*
X68907Y62867D01*
X68891Y62876D01*
X68872Y62886D01*
X68849Y62900D01*
X68825Y62915D01*
X68798Y62933D01*
X68770Y62954D01*
X68739Y62974D01*
X68708Y63001D01*
X68679Y63027D01*
X68649Y63056D01*
X68620Y63089D01*
X68593Y63122D01*
X68567Y63159D01*
X68564Y63161D01*
X68560Y63167D01*
X68554Y63179D01*
X68546Y63194D01*
X68536Y63214D01*
X68526Y63236D01*
X68513Y63261D01*
X68501Y63292D01*
X68489Y63323D01*
X68476Y63358D01*
X68464Y63396D01*
X68454Y63435D01*
X68444Y63476D01*
X68437Y63521D01*
X68431Y63567D01*
X68429Y63614D01*
X68745Y63640D01*
Y63638D01*
X68747Y63632D01*
Y63622D01*
X68749Y63610D01*
X68753Y63593D01*
X68755Y63573D01*
X68759Y63552D01*
X68765Y63530D01*
X68780Y63481D01*
X68796Y63427D01*
X68819Y63376D01*
X68848Y63327D01*
X68849Y63325D01*
X68852Y63321D01*
X68856Y63314D01*
X68864Y63306D01*
X68882Y63284D01*
X68911Y63257D01*
X68946Y63226D01*
X68966Y63210D01*
X68989Y63194D01*
X69014Y63177D01*
X69042Y63161D01*
X69071Y63144D01*
X69102Y63130D01*
X69104D01*
X69110Y63126D01*
X69118Y63124D01*
X69132Y63118D01*
X69149Y63113D01*
X69167Y63107D01*
X69190Y63099D01*
X69214Y63093D01*
X69243Y63087D01*
X69272Y63079D01*
X69305Y63073D01*
X69337Y63068D01*
X69411Y63060D01*
X69489Y63056D01*
X69522D01*
X69538Y63058D01*
X69557D01*
X69579Y63060D01*
X69602Y63062D01*
X69655Y63070D01*
X69710Y63079D01*
X69770Y63093D01*
X69825Y63112D01*
X69827D01*
X69831Y63113D01*
X69840Y63118D01*
X69850Y63122D01*
X69862Y63128D01*
X69876Y63134D01*
X69907Y63152D01*
X69944Y63175D01*
X69981Y63202D01*
X70014Y63232D01*
X70045Y63267D01*
Y63269D01*
X70049Y63271D01*
X70051Y63278D01*
X70057Y63286D01*
X70067Y63306D01*
X70082Y63333D01*
X70094Y63364D01*
X70106Y63401D01*
X70114Y63441D01*
X70116Y63485D01*
Y63487D01*
Y63491D01*
Y63497D01*
Y63505D01*
X70112Y63528D01*
X70108Y63554D01*
X70100Y63587D01*
X70088Y63622D01*
X70069Y63657D01*
X70047Y63692D01*
Y63694D01*
X70043Y63696D01*
X70034Y63706D01*
X70016Y63722D01*
X69991Y63743D01*
X69961Y63767D01*
X69922Y63792D01*
X69875Y63817D01*
X69848Y63827D01*
X69819Y63839D01*
X69817D01*
X69815Y63841D01*
X69807Y63843D01*
X69799Y63847D01*
X69784Y63851D01*
X69768Y63856D01*
X69747Y63864D01*
X69725Y63870D01*
X69696Y63878D01*
X69663Y63886D01*
X69626Y63897D01*
X69586Y63909D01*
X69538Y63921D01*
X69487Y63933D01*
X69432Y63948D01*
X69368Y63962D01*
X69364Y63964D01*
X69354Y63966D01*
X69335Y63970D01*
X69311Y63977D01*
X69284Y63985D01*
X69251Y63993D01*
X69214Y64003D01*
X69178Y64013D01*
X69095Y64038D01*
X69016Y64065D01*
X68977Y64079D01*
X68942Y64091D01*
X68909Y64106D01*
X68880Y64120D01*
X68878Y64122D01*
X68872Y64124D01*
X68864Y64130D01*
X68852Y64136D01*
X68835Y64147D01*
X68819Y64157D01*
X68780Y64186D01*
X68735Y64218D01*
X68692Y64259D01*
X68649Y64305D01*
X68630Y64329D01*
X68612Y64354D01*
Y64356D01*
X68608Y64360D01*
X68603Y64368D01*
X68597Y64378D01*
X68591Y64393D01*
X68583Y64407D01*
X68577Y64425D01*
X68569Y64446D01*
X68552Y64493D01*
X68538Y64547D01*
X68528Y64606D01*
X68526Y64637D01*
X68524Y64670D01*
Y64671D01*
Y64678D01*
Y64688D01*
X68526Y64702D01*
X68528Y64719D01*
X68530Y64739D01*
X68532Y64762D01*
X68538Y64786D01*
X68550Y64840D01*
X68569Y64901D01*
X68581Y64932D01*
X68595Y64963D01*
X68612Y64995D01*
X68630Y65026D01*
X68632Y65028D01*
X68636Y65034D01*
X68642Y65043D01*
X68651Y65055D01*
X68661Y65067D01*
X68675Y65084D01*
X68692Y65102D01*
X68710Y65121D01*
X68733Y65141D01*
X68755Y65162D01*
X68782Y65184D01*
X68811Y65205D01*
X68841Y65225D01*
X68874Y65245D01*
X68909Y65264D01*
X68948Y65280D01*
X68950Y65282D01*
X68958Y65285D01*
X68968Y65289D01*
X68985Y65295D01*
X69003Y65301D01*
X69028Y65307D01*
X69055Y65315D01*
X69085Y65323D01*
X69118Y65332D01*
X69153Y65340D01*
X69192Y65346D01*
X69231Y65352D01*
X69319Y65362D01*
X69411Y65367D01*
X69438D01*
X69458Y65364D01*
D02*
G37*
G36*
X71935Y62802D02*
X71625D01*
Y64776D01*
X71623Y64774D01*
X71619Y64772D01*
X71613Y64766D01*
X71605Y64758D01*
X71594Y64747D01*
X71580Y64737D01*
X71564Y64723D01*
X71545Y64708D01*
X71527Y64694D01*
X71504Y64678D01*
X71453Y64641D01*
X71396Y64602D01*
X71330Y64561D01*
X71328Y64559D01*
X71322Y64557D01*
X71311Y64551D01*
X71299Y64544D01*
X71283Y64534D01*
X71264Y64524D01*
X71244Y64514D01*
X71221Y64501D01*
X71172Y64475D01*
X71117Y64448D01*
X71061Y64424D01*
X71006Y64401D01*
Y64702D01*
X71008Y64704D01*
X71018Y64708D01*
X71031Y64715D01*
X71049Y64725D01*
X71072Y64735D01*
X71098Y64749D01*
X71127Y64766D01*
X71160Y64784D01*
X71195Y64805D01*
X71229Y64827D01*
X71305Y64879D01*
X71383Y64934D01*
X71459Y64998D01*
X71461Y65000D01*
X71467Y65006D01*
X71478Y65014D01*
X71490Y65028D01*
X71506Y65043D01*
X71525Y65061D01*
X71545Y65082D01*
X71566Y65106D01*
X71611Y65157D01*
X71658Y65215D01*
X71699Y65274D01*
X71717Y65305D01*
X71734Y65336D01*
X71935D01*
Y62802D01*
D02*
G37*
G36*
X66941Y65323D02*
X67000D01*
X67033Y65321D01*
X67107Y65317D01*
X67181Y65309D01*
X67252Y65301D01*
X67285Y65295D01*
X67316Y65289D01*
X67318D01*
X67326Y65286D01*
X67337Y65282D01*
X67353Y65278D01*
X67371Y65274D01*
X67394Y65266D01*
X67417Y65258D01*
X67443Y65248D01*
X67503Y65223D01*
X67564Y65192D01*
X67628Y65153D01*
X67687Y65108D01*
X67689Y65106D01*
X67695Y65100D01*
X67706Y65092D01*
X67720Y65077D01*
X67736Y65061D01*
X67755Y65040D01*
X67777Y65018D01*
X67800Y64991D01*
X67822Y64961D01*
X67847Y64928D01*
X67872Y64893D01*
X67896Y64854D01*
X67921Y64813D01*
X67943Y64770D01*
X67964Y64723D01*
X67984Y64676D01*
X67987Y64674D01*
X67989Y64663D01*
X67995Y64649D01*
X68001Y64628D01*
X68007Y64604D01*
X68017Y64575D01*
X68025Y64540D01*
X68036Y64503D01*
X68044Y64460D01*
X68054Y64413D01*
X68062Y64364D01*
X68068Y64313D01*
X68077Y64257D01*
X68081Y64200D01*
X68083Y64139D01*
X68085Y64077D01*
Y64073D01*
Y64065D01*
Y64048D01*
Y64028D01*
X68083Y64003D01*
X68081Y63974D01*
X68079Y63942D01*
X68077Y63905D01*
X68073Y63866D01*
X68068Y63825D01*
X68056Y63741D01*
X68040Y63653D01*
X68017Y63567D01*
Y63564D01*
X68015Y63556D01*
X68011Y63546D01*
X68005Y63530D01*
X67999Y63511D01*
X67990Y63489D01*
X67980Y63464D01*
X67970Y63437D01*
X67945Y63380D01*
X67917Y63319D01*
X67882Y63257D01*
X67845Y63200D01*
X67843Y63198D01*
X67841Y63194D01*
X67835Y63185D01*
X67826Y63175D01*
X67816Y63163D01*
X67806Y63148D01*
X67777Y63116D01*
X67743Y63079D01*
X67703Y63042D01*
X67660Y63005D01*
X67615Y62970D01*
X67613D01*
X67609Y62966D01*
X67603Y62962D01*
X67593Y62956D01*
X67581Y62950D01*
X67566Y62941D01*
X67550Y62933D01*
X67531Y62923D01*
X67511Y62913D01*
X67486Y62902D01*
X67435Y62882D01*
X67378Y62861D01*
X67314Y62843D01*
X67312D01*
X67306Y62841D01*
X67296Y62839D01*
X67283Y62837D01*
X67267Y62833D01*
X67246Y62831D01*
X67224Y62827D01*
X67197Y62822D01*
X67168Y62818D01*
X67138Y62814D01*
X67105Y62812D01*
X67068Y62808D01*
X66992Y62804D01*
X66908Y62802D01*
X66000D01*
Y65325D01*
X66916D01*
X66941Y65323D01*
D02*
G37*
G36*
X129958Y64364D02*
X129983D01*
X130012Y64362D01*
X130044Y64358D01*
X130079Y64354D01*
X130116Y64350D01*
X130155Y64344D01*
X130239Y64328D01*
X130323Y64305D01*
X130366Y64291D01*
X130407Y64274D01*
X130409D01*
X130418Y64270D01*
X130428Y64264D01*
X130442Y64258D01*
X130461Y64248D01*
X130481Y64237D01*
X130504Y64223D01*
X130530Y64207D01*
X130555Y64190D01*
X130581Y64170D01*
X130610Y64147D01*
X130637Y64125D01*
X130690Y64069D01*
X130715Y64040D01*
X130737Y64008D01*
X130739Y64006D01*
X130742Y63999D01*
X130748Y63989D01*
X130756Y63977D01*
X130764Y63961D01*
X130774Y63940D01*
X130784Y63917D01*
X130797Y63893D01*
X130807Y63864D01*
X130819Y63836D01*
X130830Y63803D01*
X130838Y63768D01*
X130854Y63692D01*
X130860Y63653D01*
X130862Y63612D01*
X130543Y63587D01*
Y63590D01*
X130541Y63598D01*
X130538Y63610D01*
X130536Y63626D01*
X130532Y63647D01*
X130526Y63670D01*
X130520Y63694D01*
X130510Y63723D01*
X130487Y63780D01*
X130473Y63811D01*
X130456Y63840D01*
X130438Y63870D01*
X130418Y63897D01*
X130393Y63924D01*
X130366Y63948D01*
X130364Y63950D01*
X130360Y63954D01*
X130350Y63961D01*
X130338Y63967D01*
X130323Y63977D01*
X130303Y63987D01*
X130280Y63998D01*
X130256Y64010D01*
X130225Y64022D01*
X130192Y64032D01*
X130157Y64043D01*
X130118Y64053D01*
X130075Y64059D01*
X130028Y64065D01*
X129979Y64069D01*
X129926Y64071D01*
X129897D01*
X129876Y64069D01*
X129852Y64067D01*
X129823Y64065D01*
X129790Y64061D01*
X129757Y64057D01*
X129684Y64045D01*
X129610Y64024D01*
X129575Y64012D01*
X129542Y63995D01*
X129511Y63979D01*
X129483Y63959D01*
X129481Y63956D01*
X129477Y63954D01*
X129471Y63948D01*
X129462Y63938D01*
X129450Y63928D01*
X129440Y63915D01*
X129415Y63885D01*
X129388Y63846D01*
X129368Y63799D01*
X129358Y63774D01*
X129351Y63747D01*
X129348Y63721D01*
X129345Y63692D01*
Y63690D01*
Y63686D01*
Y63680D01*
X129348Y63670D01*
Y63657D01*
X129351Y63645D01*
X129358Y63614D01*
X129370Y63577D01*
X129386Y63540D01*
X129411Y63503D01*
X129425Y63485D01*
X129442Y63469D01*
X129444D01*
X129446Y63464D01*
X129454Y63460D01*
X129464Y63454D01*
X129477Y63446D01*
X129495Y63436D01*
X129516Y63425D01*
X129542Y63413D01*
X129573Y63401D01*
X129608Y63387D01*
X129651Y63370D01*
X129696Y63356D01*
X129749Y63339D01*
X129809Y63323D01*
X129874Y63305D01*
X129948Y63288D01*
X129952D01*
X129958Y63286D01*
X129967Y63284D01*
X129987Y63280D01*
X130014Y63272D01*
X130046Y63266D01*
X130085Y63255D01*
X130126Y63245D01*
X130172Y63233D01*
X130264Y63208D01*
X130311Y63196D01*
X130356Y63182D01*
X130399Y63167D01*
X130440Y63155D01*
X130477Y63141D01*
X130508Y63128D01*
X130510Y63126D01*
X130518Y63124D01*
X130528Y63118D01*
X130545Y63110D01*
X130561Y63100D01*
X130584Y63087D01*
X130606Y63073D01*
X130631Y63059D01*
X130684Y63020D01*
X130737Y62977D01*
X130789Y62925D01*
X130811Y62899D01*
X130832Y62870D01*
X130834Y62868D01*
X130836Y62864D01*
X130842Y62854D01*
X130848Y62843D01*
X130856Y62827D01*
X130865Y62810D01*
X130875Y62790D01*
X130885Y62767D01*
X130895Y62741D01*
X130905Y62714D01*
X130914Y62683D01*
X130922Y62653D01*
X130934Y62585D01*
X130936Y62548D01*
X130938Y62511D01*
Y62509D01*
Y62503D01*
Y62491D01*
X130936Y62476D01*
X130934Y62460D01*
X130932Y62437D01*
X130928Y62415D01*
X130924Y62388D01*
X130918Y62359D01*
X130910Y62331D01*
X130901Y62298D01*
X130889Y62267D01*
X130875Y62232D01*
X130860Y62200D01*
X130842Y62165D01*
X130821Y62132D01*
X130819Y62130D01*
X130815Y62124D01*
X130809Y62116D01*
X130801Y62103D01*
X130789Y62089D01*
X130774Y62071D01*
X130756Y62052D01*
X130737Y62032D01*
X130715Y62009D01*
X130690Y61989D01*
X130664Y61964D01*
X130633Y61941D01*
X130600Y61919D01*
X130565Y61898D01*
X130528Y61876D01*
X130489Y61857D01*
X130487Y61855D01*
X130479Y61853D01*
X130467Y61849D01*
X130452Y61843D01*
X130432Y61835D01*
X130407Y61826D01*
X130379Y61818D01*
X130348Y61808D01*
X130313Y61800D01*
X130276Y61790D01*
X130235Y61781D01*
X130194Y61775D01*
X130149Y61767D01*
X130102Y61763D01*
X130053Y61761D01*
X130003Y61759D01*
X129971D01*
X129946Y61761D01*
X129917D01*
X129883Y61765D01*
X129846Y61767D01*
X129803Y61771D01*
X129760Y61777D01*
X129712Y61783D01*
X129616Y61800D01*
X129522Y61825D01*
X129474Y61841D01*
X129429Y61857D01*
X129427Y61859D01*
X129419Y61861D01*
X129407Y61867D01*
X129391Y61876D01*
X129372Y61886D01*
X129350Y61900D01*
X129325Y61915D01*
X129298Y61933D01*
X129270Y61954D01*
X129239Y61974D01*
X129208Y62001D01*
X129179Y62027D01*
X129149Y62056D01*
X129120Y62089D01*
X129093Y62122D01*
X129067Y62159D01*
X129065Y62161D01*
X129060Y62167D01*
X129054Y62179D01*
X129046Y62194D01*
X129036Y62214D01*
X129026Y62236D01*
X129013Y62261D01*
X129001Y62292D01*
X128989Y62323D01*
X128976Y62357D01*
X128964Y62396D01*
X128954Y62435D01*
X128944Y62476D01*
X128937Y62521D01*
X128931Y62567D01*
X128929Y62614D01*
X129245Y62640D01*
Y62638D01*
X129247Y62632D01*
Y62622D01*
X129249Y62610D01*
X129253Y62593D01*
X129255Y62573D01*
X129259Y62552D01*
X129265Y62530D01*
X129280Y62480D01*
X129296Y62427D01*
X129319Y62376D01*
X129348Y62327D01*
X129350Y62325D01*
X129351Y62321D01*
X129356Y62314D01*
X129364Y62306D01*
X129382Y62284D01*
X129411Y62257D01*
X129446Y62226D01*
X129466Y62210D01*
X129489Y62194D01*
X129514Y62177D01*
X129542Y62161D01*
X129571Y62144D01*
X129602Y62130D01*
X129604D01*
X129610Y62126D01*
X129618Y62124D01*
X129632Y62118D01*
X129649Y62113D01*
X129667Y62107D01*
X129690Y62099D01*
X129714Y62093D01*
X129743Y62087D01*
X129772Y62079D01*
X129805Y62072D01*
X129837Y62068D01*
X129911Y62060D01*
X129989Y62056D01*
X130022D01*
X130038Y62058D01*
X130057D01*
X130079Y62060D01*
X130102Y62062D01*
X130155Y62071D01*
X130210Y62079D01*
X130270Y62093D01*
X130325Y62112D01*
X130327D01*
X130331Y62113D01*
X130340Y62118D01*
X130350Y62122D01*
X130362Y62128D01*
X130377Y62134D01*
X130407Y62152D01*
X130444Y62175D01*
X130481Y62202D01*
X130514Y62232D01*
X130545Y62267D01*
Y62269D01*
X130549Y62271D01*
X130551Y62278D01*
X130557Y62286D01*
X130567Y62306D01*
X130581Y62333D01*
X130594Y62364D01*
X130606Y62401D01*
X130614Y62441D01*
X130616Y62485D01*
Y62487D01*
Y62491D01*
Y62497D01*
Y62505D01*
X130612Y62528D01*
X130608Y62554D01*
X130600Y62587D01*
X130588Y62622D01*
X130569Y62657D01*
X130547Y62692D01*
Y62694D01*
X130543Y62696D01*
X130534Y62706D01*
X130516Y62722D01*
X130491Y62743D01*
X130461Y62767D01*
X130422Y62792D01*
X130375Y62817D01*
X130348Y62827D01*
X130319Y62839D01*
X130317D01*
X130315Y62841D01*
X130307Y62843D01*
X130299Y62847D01*
X130284Y62852D01*
X130268Y62856D01*
X130247Y62864D01*
X130225Y62870D01*
X130196Y62878D01*
X130163Y62886D01*
X130126Y62897D01*
X130085Y62909D01*
X130038Y62921D01*
X129987Y62933D01*
X129932Y62948D01*
X129868Y62962D01*
X129864Y62964D01*
X129854Y62966D01*
X129835Y62970D01*
X129811Y62977D01*
X129784Y62985D01*
X129751Y62993D01*
X129714Y63003D01*
X129677Y63013D01*
X129595Y63038D01*
X129516Y63065D01*
X129477Y63079D01*
X129442Y63091D01*
X129409Y63106D01*
X129380Y63120D01*
X129378Y63122D01*
X129372Y63124D01*
X129364Y63130D01*
X129351Y63137D01*
X129335Y63147D01*
X129319Y63157D01*
X129280Y63186D01*
X129235Y63218D01*
X129192Y63260D01*
X129149Y63305D01*
X129130Y63329D01*
X129112Y63354D01*
Y63356D01*
X129108Y63360D01*
X129104Y63368D01*
X129097Y63378D01*
X129091Y63393D01*
X129083Y63407D01*
X129077Y63425D01*
X129069Y63446D01*
X129052Y63493D01*
X129038Y63547D01*
X129028Y63606D01*
X129026Y63637D01*
X129024Y63670D01*
Y63671D01*
Y63678D01*
Y63688D01*
X129026Y63702D01*
X129028Y63719D01*
X129030Y63739D01*
X129032Y63762D01*
X129038Y63786D01*
X129050Y63840D01*
X129069Y63901D01*
X129081Y63932D01*
X129095Y63963D01*
X129112Y63995D01*
X129130Y64026D01*
X129132Y64028D01*
X129136Y64034D01*
X129142Y64043D01*
X129151Y64055D01*
X129161Y64067D01*
X129175Y64084D01*
X129192Y64102D01*
X129210Y64121D01*
X129233Y64141D01*
X129255Y64161D01*
X129282Y64184D01*
X129311Y64205D01*
X129341Y64225D01*
X129374Y64245D01*
X129409Y64264D01*
X129448Y64280D01*
X129450Y64282D01*
X129458Y64284D01*
X129468Y64289D01*
X129485Y64295D01*
X129503Y64301D01*
X129528Y64307D01*
X129554Y64315D01*
X129585Y64323D01*
X129618Y64332D01*
X129653Y64340D01*
X129692Y64346D01*
X129731Y64352D01*
X129819Y64362D01*
X129911Y64367D01*
X129938D01*
X129958Y64364D01*
D02*
G37*
G36*
X132140Y64334D02*
X132164Y64332D01*
X132195Y64330D01*
X132230Y64325D01*
X132271Y64319D01*
X132312Y64311D01*
X132357Y64299D01*
X132404Y64287D01*
X132451Y64270D01*
X132500Y64250D01*
X132547Y64227D01*
X132593Y64200D01*
X132638Y64168D01*
X132679Y64133D01*
X132681Y64131D01*
X132689Y64125D01*
X132699Y64112D01*
X132712Y64096D01*
X132728Y64077D01*
X132746Y64053D01*
X132765Y64026D01*
X132785Y63995D01*
X132806Y63961D01*
X132824Y63924D01*
X132843Y63883D01*
X132859Y63838D01*
X132871Y63790D01*
X132884Y63741D01*
X132890Y63690D01*
X132892Y63635D01*
Y63633D01*
Y63629D01*
Y63620D01*
Y63608D01*
X132890Y63596D01*
X132888Y63579D01*
X132886Y63561D01*
X132884Y63540D01*
X132876Y63495D01*
X132865Y63444D01*
X132849Y63391D01*
X132828Y63335D01*
Y63333D01*
X132826Y63329D01*
X132822Y63321D01*
X132816Y63311D01*
X132810Y63296D01*
X132802Y63280D01*
X132791Y63264D01*
X132779Y63243D01*
X132750Y63196D01*
X132716Y63145D01*
X132673Y63087D01*
X132623Y63028D01*
X132621Y63026D01*
X132617Y63020D01*
X132609Y63011D01*
X132597Y62999D01*
X132580Y62981D01*
X132560Y62962D01*
X132537Y62938D01*
X132511Y62911D01*
X132480Y62882D01*
X132445Y62847D01*
X132406Y62813D01*
X132363Y62772D01*
X132316Y62729D01*
X132265Y62683D01*
X132207Y62634D01*
X132148Y62583D01*
X132144Y62581D01*
X132135Y62573D01*
X132121Y62560D01*
X132103Y62546D01*
X132080Y62526D01*
X132055Y62505D01*
X132027Y62480D01*
X131998Y62456D01*
X131939Y62403D01*
X131879Y62351D01*
X131852Y62327D01*
X131828Y62302D01*
X131805Y62284D01*
X131789Y62265D01*
X131785Y62261D01*
X131777Y62251D01*
X131762Y62234D01*
X131744Y62214D01*
X131723Y62189D01*
X131701Y62161D01*
X131680Y62130D01*
X131660Y62099D01*
X132896D01*
Y61802D01*
X131229D01*
Y61804D01*
Y61806D01*
Y61812D01*
Y61820D01*
Y61843D01*
X131231Y61870D01*
X131236Y61902D01*
X131242Y61939D01*
X131252Y61976D01*
X131264Y62015D01*
Y62017D01*
X131266Y62023D01*
X131270Y62032D01*
X131277Y62044D01*
X131283Y62060D01*
X131291Y62079D01*
X131301Y62099D01*
X131313Y62122D01*
X131342Y62173D01*
X131377Y62230D01*
X131418Y62290D01*
X131467Y62351D01*
X131469Y62353D01*
X131473Y62359D01*
X131482Y62368D01*
X131494Y62380D01*
X131508Y62396D01*
X131527Y62415D01*
X131547Y62435D01*
X131572Y62460D01*
X131598Y62487D01*
X131629Y62517D01*
X131662Y62548D01*
X131699Y62581D01*
X131738Y62618D01*
X131779Y62655D01*
X131826Y62692D01*
X131873Y62733D01*
X131875Y62735D01*
X131877Y62737D01*
X131883Y62741D01*
X131892Y62747D01*
X131912Y62765D01*
X131939Y62788D01*
X131974Y62817D01*
X132010Y62852D01*
X132051Y62888D01*
X132097Y62927D01*
X132142Y62970D01*
X132189Y63013D01*
X132236Y63059D01*
X132281Y63104D01*
X132324Y63147D01*
X132363Y63190D01*
X132398Y63231D01*
X132429Y63270D01*
X132431Y63272D01*
X132435Y63278D01*
X132443Y63288D01*
X132451Y63302D01*
X132461Y63321D01*
X132474Y63341D01*
X132488Y63364D01*
X132502Y63391D01*
X132529Y63446D01*
X132552Y63510D01*
X132560Y63542D01*
X132568Y63575D01*
X132572Y63608D01*
X132574Y63641D01*
Y63643D01*
Y63649D01*
Y63659D01*
X132572Y63671D01*
X132570Y63688D01*
X132568Y63706D01*
X132564Y63727D01*
X132558Y63749D01*
X132541Y63799D01*
X132531Y63823D01*
X132519Y63850D01*
X132502Y63876D01*
X132484Y63903D01*
X132463Y63928D01*
X132441Y63952D01*
X132439Y63954D01*
X132435Y63959D01*
X132427Y63965D01*
X132416Y63973D01*
X132404Y63981D01*
X132388Y63993D01*
X132369Y64004D01*
X132349Y64016D01*
X132326Y64028D01*
X132299Y64038D01*
X132271Y64051D01*
X132242Y64059D01*
X132209Y64067D01*
X132174Y64073D01*
X132138Y64077D01*
X132099Y64079D01*
X132078D01*
X132062Y64077D01*
X132043Y64075D01*
X132021Y64073D01*
X131996Y64069D01*
X131969Y64063D01*
X131912Y64047D01*
X131883Y64036D01*
X131852Y64022D01*
X131824Y64008D01*
X131795Y63989D01*
X131766Y63969D01*
X131740Y63944D01*
X131738Y63942D01*
X131734Y63938D01*
X131728Y63930D01*
X131719Y63920D01*
X131709Y63905D01*
X131697Y63889D01*
X131686Y63870D01*
X131674Y63848D01*
X131660Y63821D01*
X131650Y63794D01*
X131637Y63764D01*
X131627Y63731D01*
X131619Y63694D01*
X131613Y63657D01*
X131609Y63616D01*
X131606Y63573D01*
X131289Y63606D01*
Y63608D01*
Y63610D01*
X131291Y63622D01*
X131293Y63641D01*
X131297Y63663D01*
X131303Y63694D01*
X131309Y63729D01*
X131320Y63766D01*
X131332Y63807D01*
X131344Y63850D01*
X131363Y63895D01*
X131381Y63938D01*
X131406Y63983D01*
X131430Y64028D01*
X131461Y64071D01*
X131496Y64110D01*
X131533Y64147D01*
X131535Y64149D01*
X131543Y64155D01*
X131555Y64166D01*
X131572Y64176D01*
X131592Y64190D01*
X131619Y64207D01*
X131650Y64223D01*
X131684Y64241D01*
X131723Y64260D01*
X131766Y64276D01*
X131814Y64293D01*
X131865Y64307D01*
X131918Y64319D01*
X131978Y64328D01*
X132039Y64334D01*
X132105Y64336D01*
X132121D01*
X132140Y64334D01*
D02*
G37*
G36*
X127441Y64323D02*
X127500D01*
X127533Y64321D01*
X127607Y64317D01*
X127681Y64309D01*
X127752Y64301D01*
X127785Y64295D01*
X127816Y64289D01*
X127818D01*
X127826Y64287D01*
X127837Y64282D01*
X127853Y64278D01*
X127872Y64274D01*
X127894Y64266D01*
X127917Y64258D01*
X127943Y64248D01*
X128003Y64223D01*
X128064Y64192D01*
X128128Y64153D01*
X128187Y64108D01*
X128189Y64106D01*
X128195Y64100D01*
X128206Y64092D01*
X128220Y64077D01*
X128236Y64061D01*
X128255Y64040D01*
X128277Y64018D01*
X128300Y63991D01*
X128323Y63961D01*
X128347Y63928D01*
X128372Y63893D01*
X128396Y63854D01*
X128421Y63813D01*
X128443Y63770D01*
X128464Y63723D01*
X128484Y63676D01*
X128486Y63674D01*
X128489Y63663D01*
X128495Y63649D01*
X128501Y63629D01*
X128507Y63604D01*
X128517Y63575D01*
X128525Y63540D01*
X128536Y63503D01*
X128544Y63460D01*
X128554Y63413D01*
X128562Y63364D01*
X128568Y63313D01*
X128577Y63257D01*
X128581Y63200D01*
X128583Y63139D01*
X128585Y63077D01*
Y63073D01*
Y63065D01*
Y63048D01*
Y63028D01*
X128583Y63003D01*
X128581Y62975D01*
X128579Y62942D01*
X128577Y62905D01*
X128573Y62866D01*
X128568Y62825D01*
X128556Y62741D01*
X128540Y62653D01*
X128517Y62567D01*
Y62564D01*
X128515Y62556D01*
X128511Y62546D01*
X128505Y62530D01*
X128499Y62511D01*
X128491Y62489D01*
X128480Y62464D01*
X128470Y62437D01*
X128445Y62380D01*
X128417Y62318D01*
X128382Y62257D01*
X128345Y62200D01*
X128343Y62198D01*
X128341Y62194D01*
X128335Y62185D01*
X128326Y62175D01*
X128316Y62163D01*
X128306Y62148D01*
X128277Y62116D01*
X128243Y62079D01*
X128203Y62042D01*
X128161Y62005D01*
X128115Y61970D01*
X128113D01*
X128109Y61966D01*
X128103Y61962D01*
X128093Y61956D01*
X128080Y61949D01*
X128066Y61941D01*
X128050Y61933D01*
X128031Y61923D01*
X128011Y61913D01*
X127986Y61902D01*
X127935Y61882D01*
X127878Y61861D01*
X127814Y61843D01*
X127812D01*
X127806Y61841D01*
X127796Y61839D01*
X127783Y61837D01*
X127767Y61833D01*
X127746Y61831D01*
X127724Y61826D01*
X127697Y61822D01*
X127668Y61818D01*
X127638Y61814D01*
X127605Y61812D01*
X127568Y61808D01*
X127492Y61804D01*
X127408Y61802D01*
X126500D01*
Y64325D01*
X127416D01*
X127441Y64323D01*
D02*
G37*
%LPC*%
G36*
X66916Y65028D02*
X66334D01*
Y63099D01*
X66912D01*
X66933Y63101D01*
X66957D01*
X66984Y63103D01*
X67015Y63105D01*
X67076Y63109D01*
X67142Y63118D01*
X67205Y63130D01*
X67236Y63136D01*
X67263Y63144D01*
X67265D01*
X67269Y63146D01*
X67277Y63148D01*
X67285Y63152D01*
X67298Y63159D01*
X67312Y63163D01*
X67345Y63179D01*
X67380Y63198D01*
X67419Y63220D01*
X67456Y63247D01*
X67488Y63275D01*
X67490Y63278D01*
X67494Y63282D01*
X67501Y63288D01*
X67509Y63298D01*
X67517Y63308D01*
X67529Y63325D01*
X67542Y63341D01*
X67556Y63359D01*
X67570Y63382D01*
X67585Y63407D01*
X67601Y63431D01*
X67615Y63460D01*
X67632Y63491D01*
X67646Y63524D01*
X67673Y63595D01*
Y63597D01*
X67675Y63605D01*
X67679Y63616D01*
X67683Y63632D01*
X67689Y63651D01*
X67693Y63673D01*
X67699Y63702D01*
X67708Y63731D01*
X67714Y63765D01*
X67720Y63802D01*
X67724Y63841D01*
X67730Y63884D01*
X67734Y63932D01*
X67738Y63979D01*
X67740Y64028D01*
Y64081D01*
Y64083D01*
Y64085D01*
Y64091D01*
Y64100D01*
Y64120D01*
X67738Y64147D01*
X67736Y64179D01*
X67734Y64218D01*
X67730Y64259D01*
X67724Y64307D01*
X67718Y64354D01*
X67708Y64403D01*
X67697Y64454D01*
X67685Y64505D01*
X67671Y64555D01*
X67652Y64602D01*
X67632Y64649D01*
X67609Y64690D01*
X67607Y64692D01*
X67603Y64700D01*
X67597Y64710D01*
X67587Y64725D01*
X67574Y64741D01*
X67558Y64762D01*
X67542Y64782D01*
X67521Y64805D01*
X67499Y64829D01*
X67476Y64854D01*
X67421Y64901D01*
X67392Y64922D01*
X67361Y64942D01*
X67328Y64961D01*
X67294Y64975D01*
X67291D01*
X67287Y64977D01*
X67279Y64979D01*
X67269Y64983D01*
X67255Y64987D01*
X67236Y64991D01*
X67214Y64998D01*
X67189Y65002D01*
X67162Y65006D01*
X67129Y65012D01*
X67095Y65016D01*
X67056Y65020D01*
X67013Y65024D01*
X66968Y65026D01*
X66916Y65028D01*
D02*
G37*
G36*
X127416Y64028D02*
X126834D01*
Y62099D01*
X127412D01*
X127433Y62101D01*
X127457D01*
X127484Y62103D01*
X127515Y62105D01*
X127576Y62109D01*
X127642Y62118D01*
X127705Y62130D01*
X127736Y62136D01*
X127763Y62144D01*
X127765D01*
X127769Y62146D01*
X127777Y62148D01*
X127785Y62152D01*
X127798Y62159D01*
X127812Y62163D01*
X127845Y62179D01*
X127880Y62198D01*
X127919Y62220D01*
X127955Y62247D01*
X127988Y62275D01*
X127990Y62278D01*
X127995Y62282D01*
X128001Y62288D01*
X128009Y62298D01*
X128017Y62308D01*
X128029Y62325D01*
X128042Y62341D01*
X128056Y62359D01*
X128070Y62382D01*
X128085Y62407D01*
X128101Y62431D01*
X128115Y62460D01*
X128132Y62491D01*
X128146Y62524D01*
X128173Y62595D01*
Y62597D01*
X128175Y62606D01*
X128179Y62616D01*
X128183Y62632D01*
X128189Y62651D01*
X128193Y62673D01*
X128200Y62702D01*
X128208Y62731D01*
X128214Y62765D01*
X128220Y62802D01*
X128224Y62841D01*
X128230Y62884D01*
X128234Y62932D01*
X128238Y62979D01*
X128241Y63028D01*
Y63081D01*
Y63083D01*
Y63085D01*
Y63091D01*
Y63100D01*
Y63120D01*
X128238Y63147D01*
X128236Y63179D01*
X128234Y63218D01*
X128230Y63260D01*
X128224Y63307D01*
X128218Y63354D01*
X128208Y63403D01*
X128197Y63454D01*
X128185Y63506D01*
X128171Y63555D01*
X128152Y63602D01*
X128132Y63649D01*
X128109Y63690D01*
X128107Y63692D01*
X128103Y63700D01*
X128097Y63710D01*
X128087Y63725D01*
X128074Y63741D01*
X128058Y63762D01*
X128042Y63782D01*
X128021Y63805D01*
X127999Y63829D01*
X127976Y63854D01*
X127921Y63901D01*
X127892Y63922D01*
X127861Y63942D01*
X127828Y63961D01*
X127794Y63975D01*
X127792D01*
X127787Y63977D01*
X127779Y63979D01*
X127769Y63983D01*
X127755Y63987D01*
X127736Y63991D01*
X127714Y63998D01*
X127689Y64002D01*
X127662Y64006D01*
X127629Y64012D01*
X127595Y64016D01*
X127556Y64020D01*
X127513Y64024D01*
X127468Y64026D01*
X127416Y64028D01*
D02*
G37*
%LPD*%
D11*
X40705Y28953D02*
Y98047D01*
Y28953D02*
X91295D01*
Y98047D01*
X40705D02*
X91295D01*
X101205Y27953D02*
Y97047D01*
Y27953D02*
X151795D01*
Y97047D01*
X101205D02*
X151795D01*
M02*
