G04*
G04 #@! TF.GenerationSoftware,Altium Limited,Altium Designer,24.10.1 (45)*
G04*
G04 Layer_Color=32768*
%FSLAX25Y25*%
%MOIN*%
G70*
G04*
G04 #@! TF.SameCoordinates,CF0DEB23-49E1-4CDD-ABF9-115A54F9760B*
G04*
G04*
G04 #@! TF.FilePolarity,Positive*
G04*
G01*
G75*
%ADD11C,0.00787*%
%ADD23C,0.00197*%
D11*
X40705Y28953D02*
Y98047D01*
Y28953D02*
X91295D01*
Y98047D01*
X40705D02*
X91295D01*
X101205Y27953D02*
Y97047D01*
Y27953D02*
X151795D01*
Y97047D01*
X101205D02*
X151795D01*
D23*
X174917Y55122D02*
Y77878D01*
X187083D01*
Y55122D02*
Y77878D01*
X174917Y55122D02*
X187083D01*
X171083Y54122D02*
Y76878D01*
X158917Y54122D02*
X171083D01*
X158917D02*
Y76878D01*
X171083D01*
X22917Y51122D02*
Y73878D01*
X35083D01*
Y51122D02*
Y73878D01*
X22917Y51122D02*
X35083D01*
X17583Y50622D02*
Y73378D01*
X5417Y50622D02*
X17583D01*
X5417D02*
Y73378D01*
X17583D01*
X69622Y109417D02*
X92378D01*
X69622D02*
Y121583D01*
X92378D01*
Y109417D02*
Y121583D01*
X99622Y121083D02*
X122378D01*
Y108917D02*
Y121083D01*
X99622Y108917D02*
X122378D01*
X99622D02*
Y121083D01*
X129622Y108417D02*
X152378D01*
X129622D02*
Y120583D01*
X152378D01*
Y108417D02*
Y120583D01*
X39622Y122083D02*
X62378D01*
Y109917D02*
Y122083D01*
X39622Y109917D02*
X62378D01*
X39622D02*
Y122083D01*
X115122Y16583D02*
X137878D01*
Y4417D02*
Y16583D01*
X115122Y4417D02*
X137878D01*
X115122D02*
Y16583D01*
X57122Y18083D02*
X79878D01*
Y5917D02*
Y18083D01*
X57122Y5917D02*
X79878D01*
X57122D02*
Y18083D01*
M02*
