G04*
G04 #@! TF.GenerationSoftware,Altium Limited,Altium Designer,24.10.1 (45)*
G04*
G04 Layer_Color=32768*
%FSLAX25Y25*%
%MOIN*%
G70*
G04*
G04 #@! TF.SameCoordinates,CF0DEB23-49E1-4CDD-ABF9-115A54F9760B*
G04*
G04*
G04 #@! TF.FilePolarity,Positive*
G04*
G01*
G75*
%ADD21C,0.00591*%
D21*
X183952Y55677D02*
X178048D01*
Y58628D01*
X179032Y59613D01*
X181000D01*
X181984Y58628D01*
Y55677D01*
X183952Y64532D02*
X178048D01*
X181000Y61580D01*
Y65516D01*
X178048Y67484D02*
X183952D01*
Y70436D01*
X182968Y71420D01*
X179032D01*
X178048Y70436D01*
Y67484D01*
X183952Y77323D02*
Y73387D01*
X180016Y77323D01*
X179032D01*
X178048Y76339D01*
Y74371D01*
X179032Y73387D01*
X167952Y79275D02*
X162048D01*
Y76323D01*
X163032Y75339D01*
X166968D01*
X167952Y76323D01*
Y79275D01*
X166968Y69436D02*
X167952Y70420D01*
Y72387D01*
X166968Y73371D01*
X165984D01*
X165000Y72387D01*
Y70420D01*
X164016Y69436D01*
X163032D01*
X162048Y70420D01*
Y72387D01*
X163032Y73371D01*
X162048Y63532D02*
Y67468D01*
X165984Y63532D01*
X166968D01*
X167952Y64516D01*
Y66484D01*
X166968Y67468D01*
X167952Y57629D02*
Y61564D01*
X162048D01*
Y57629D01*
X165000Y61564D02*
Y59596D01*
X167952Y51725D02*
Y55661D01*
X165000D01*
Y53693D01*
Y55661D01*
X162048D01*
X31952Y52661D02*
X26048D01*
Y55612D01*
X27032Y56596D01*
X29000D01*
X29984Y55612D01*
Y52661D01*
X26048Y62500D02*
Y58564D01*
X29000D01*
X28016Y60532D01*
Y61516D01*
X29000Y62500D01*
X30968D01*
X31952Y61516D01*
Y59548D01*
X30968Y58564D01*
X26048Y64468D02*
X31952D01*
Y67420D01*
X30968Y68404D01*
X27032D01*
X26048Y67420D01*
Y64468D01*
X31952Y70372D02*
Y72339D01*
Y71355D01*
X26048D01*
X27032Y70372D01*
X14452Y75283D02*
X8548D01*
Y72331D01*
X9532Y71347D01*
X13468D01*
X14452Y72331D01*
Y75283D01*
X13468Y65444D02*
X14452Y66428D01*
Y68396D01*
X13468Y69380D01*
X12484D01*
X11500Y68396D01*
Y66428D01*
X10516Y65444D01*
X9532D01*
X8548Y66428D01*
Y68396D01*
X9532Y69380D01*
X8548Y63476D02*
Y61508D01*
Y62492D01*
X14452D01*
X13468Y63476D01*
X14452Y54620D02*
Y58556D01*
X8548D01*
Y54620D01*
X11500Y58556D02*
Y56588D01*
X14452Y48717D02*
Y52653D01*
X11500D01*
Y50685D01*
Y52653D01*
X8548D01*
X94283Y112548D02*
Y118452D01*
X91331D01*
X90347Y117468D01*
Y113532D01*
X91331Y112548D01*
X94283D01*
X84444Y113532D02*
X85428Y112548D01*
X87396D01*
X88380Y113532D01*
Y114516D01*
X87396Y115500D01*
X85428D01*
X84444Y116484D01*
Y117468D01*
X85428Y118452D01*
X87396D01*
X88380Y117468D01*
X82476Y118452D02*
X80508D01*
X81492D01*
Y112548D01*
X82476Y113532D01*
X77556Y118452D02*
Y114516D01*
X75588Y112548D01*
X73620Y114516D01*
Y118452D01*
Y115500D01*
X77556D01*
X71653Y112548D02*
Y118452D01*
X68701D01*
X67717Y117468D01*
Y116484D01*
X68701Y115500D01*
X71653D01*
X68701D01*
X67717Y114516D01*
Y113532D01*
X68701Y112548D01*
X71653D01*
X100177Y117952D02*
Y112048D01*
X103129D01*
X104113Y113032D01*
Y116968D01*
X103129Y117952D01*
X100177D01*
X110016Y116968D02*
X109032Y117952D01*
X107064D01*
X106080Y116968D01*
Y115984D01*
X107064Y115000D01*
X109032D01*
X110016Y114016D01*
Y113032D01*
X109032Y112048D01*
X107064D01*
X106080Y113032D01*
X115920Y112048D02*
X111984D01*
X115920Y115984D01*
Y116968D01*
X114936Y117952D01*
X112968D01*
X111984Y116968D01*
X121823D02*
X120839Y117952D01*
X118871D01*
X117887Y116968D01*
Y113032D01*
X118871Y112048D01*
X120839D01*
X121823Y113032D01*
Y115000D01*
X119855D01*
X154775Y111548D02*
Y117452D01*
X151823D01*
X150839Y116468D01*
Y112532D01*
X151823Y111548D01*
X154775D01*
X144936Y112532D02*
X145920Y111548D01*
X147888D01*
X148872Y112532D01*
Y113516D01*
X147888Y114500D01*
X145920D01*
X144936Y115484D01*
Y116468D01*
X145920Y117452D01*
X147888D01*
X148872Y116468D01*
X139032Y117452D02*
X142968D01*
X139032Y113516D01*
Y112532D01*
X140016Y111548D01*
X141984D01*
X142968Y112532D01*
X137064Y117452D02*
Y113516D01*
X135096Y111548D01*
X133128Y113516D01*
Y117452D01*
Y114500D01*
X137064D01*
X131161Y111548D02*
Y117452D01*
X128209D01*
X127225Y116468D01*
Y115484D01*
X128209Y114500D01*
X131161D01*
X128209D01*
X127225Y113516D01*
Y112532D01*
X128209Y111548D01*
X131161D01*
X40669Y118952D02*
Y113048D01*
X43620D01*
X44604Y114032D01*
Y117968D01*
X43620Y118952D01*
X40669D01*
X50508Y117968D02*
X49524Y118952D01*
X47556D01*
X46572Y117968D01*
Y116984D01*
X47556Y116000D01*
X49524D01*
X50508Y115016D01*
Y114032D01*
X49524Y113048D01*
X47556D01*
X46572Y114032D01*
X52476Y113048D02*
X54444D01*
X53460D01*
Y118952D01*
X52476Y117968D01*
X61331D02*
X60347Y118952D01*
X58380D01*
X57396Y117968D01*
Y114032D01*
X58380Y113048D01*
X60347D01*
X61331Y114032D01*
Y116000D01*
X59363D01*
X112725Y13452D02*
Y7548D01*
X115677D01*
X116661Y8532D01*
Y12468D01*
X115677Y13452D01*
X112725D01*
X122564Y12468D02*
X121580Y13452D01*
X119613D01*
X118629Y12468D01*
Y11484D01*
X119613Y10500D01*
X121580D01*
X122564Y9516D01*
Y8532D01*
X121580Y7548D01*
X119613D01*
X118629Y8532D01*
X128468Y7548D02*
X124532D01*
X128468Y11484D01*
Y12468D01*
X127484Y13452D01*
X125516D01*
X124532Y12468D01*
X134371D02*
X133387Y13452D01*
X131420D01*
X130436Y12468D01*
Y8532D01*
X131420Y7548D01*
X133387D01*
X134371Y8532D01*
X136339Y13452D02*
Y7548D01*
X139291D01*
X140275Y8532D01*
Y12468D01*
X139291Y13452D01*
X136339D01*
X55217Y14952D02*
Y9048D01*
X58169D01*
X59153Y10032D01*
Y13968D01*
X58169Y14952D01*
X55217D01*
X65056Y13968D02*
X64072Y14952D01*
X62104D01*
X61120Y13968D01*
Y12984D01*
X62104Y12000D01*
X64072D01*
X65056Y11016D01*
Y10032D01*
X64072Y9048D01*
X62104D01*
X61120Y10032D01*
X67024Y9048D02*
X68992D01*
X68008D01*
Y14952D01*
X67024Y13968D01*
X75880D02*
X74896Y14952D01*
X72928D01*
X71944Y13968D01*
Y10032D01*
X72928Y9048D01*
X74896D01*
X75880Y10032D01*
X77847Y14952D02*
Y9048D01*
X80799D01*
X81783Y10032D01*
Y13968D01*
X80799Y14952D01*
X77847D01*
M02*
