G04*
G04 #@! TF.GenerationSoftware,Altium Limited,Altium Designer,24.10.1 (45)*
G04*
G04 Layer_Color=65535*
%FSLAX25Y25*%
%MOIN*%
G70*
G04*
G04 #@! TF.SameCoordinates,CF0DEB23-49E1-4CDD-ABF9-115A54F9760B*
G04*
G04*
G04 #@! TF.FilePolarity,Positive*
G04*
G01*
G75*
%ADD10C,0.00984*%
%ADD11C,0.00787*%
%ADD12C,0.01000*%
D10*
X181492Y54138D02*
G03*
X181492Y54138I-492J0D01*
G01*
X165492Y77862D02*
G03*
X165492Y77862I-492J0D01*
G01*
X29492Y50138D02*
G03*
X29492Y50138I-492J0D01*
G01*
X11992Y74362D02*
G03*
X11992Y74362I-492J0D01*
G01*
X93854Y115500D02*
G03*
X93854Y115500I-492J0D01*
G01*
X99130Y115000D02*
G03*
X99130Y115000I-492J0D01*
G01*
X153854Y114500D02*
G03*
X153854Y114500I-492J0D01*
G01*
X39130Y116000D02*
G03*
X39130Y116000I-492J0D01*
G01*
X39228Y33500D02*
G03*
X39228Y33500I-492J0D01*
G01*
X99728Y32500D02*
G03*
X99728Y32500I-492J0D01*
G01*
X114630Y10500D02*
G03*
X114630Y10500I-492J0D01*
G01*
X56630Y12000D02*
G03*
X56630Y12000I-492J0D01*
G01*
D11*
X175705Y77091D02*
X186295D01*
X175705Y55910D02*
Y77091D01*
Y55910D02*
X186295D01*
Y77091D01*
X159705Y54909D02*
X170295D01*
Y76091D01*
X159705D02*
X170295D01*
X159705Y54909D02*
Y76091D01*
X23705Y73090D02*
X34295D01*
X23705Y51910D02*
Y73090D01*
Y51910D02*
X34295D01*
Y73090D01*
X6205Y51410D02*
X16795D01*
Y72591D01*
X6205D02*
X16795D01*
X6205Y51410D02*
Y72591D01*
X70410Y110205D02*
Y120795D01*
Y110205D02*
X91590D01*
Y120795D01*
X70410D02*
X91590D01*
X121591Y109705D02*
Y120295D01*
X100409D02*
X121591D01*
X100409Y109705D02*
Y120295D01*
Y109705D02*
X121591D01*
X130409Y109205D02*
Y119795D01*
Y109205D02*
X151591D01*
Y119795D01*
X130409D02*
X151591D01*
X61590Y110705D02*
Y121295D01*
X40409D02*
X61590D01*
X40409Y110705D02*
Y121295D01*
Y110705D02*
X61590D01*
X41098Y29346D02*
Y97654D01*
X90528Y29346D02*
X90902D01*
X80528D02*
X81472D01*
X70528D02*
X71472D01*
X60528D02*
X61472D01*
X50528D02*
X51472D01*
X41098D02*
X41472D01*
X90902D02*
Y97654D01*
X90528D02*
X90902D01*
X80528D02*
X81472D01*
X70528D02*
X71472D01*
X60528D02*
X61472D01*
X50528D02*
X51472D01*
X41098D02*
X41472D01*
X101598Y28346D02*
Y96653D01*
X151028Y28346D02*
X151402D01*
X141028D02*
X141972D01*
X131028D02*
X131972D01*
X121028D02*
X121972D01*
X111028D02*
X111972D01*
X101598D02*
X101972D01*
X151402D02*
Y96653D01*
X151028D02*
X151402D01*
X141028D02*
X141972D01*
X131028D02*
X131972D01*
X121028D02*
X121972D01*
X111028D02*
X111972D01*
X101598D02*
X101972D01*
X137091Y5205D02*
Y15795D01*
X115909D02*
X137091D01*
X115909Y5205D02*
Y15795D01*
Y5205D02*
X137091D01*
X79090Y6705D02*
Y17295D01*
X57910D02*
X79090D01*
X57910Y6705D02*
Y17295D01*
Y6705D02*
X79090D01*
D12*
X11000Y25497D02*
Y20499D01*
X12000Y19499D01*
X13999D01*
X14999Y20499D01*
Y25497D01*
X16998Y17500D02*
Y23498D01*
X19997D01*
X20997Y22498D01*
Y20499D01*
X19997Y19499D01*
X16998D01*
X22996D02*
X25995D01*
X26995Y20499D01*
X25995Y21499D01*
X23996D01*
X22996Y22498D01*
X23996Y23498D01*
X26995D01*
X28994Y19499D02*
X30994D01*
X29994D01*
Y23498D01*
X28994D01*
X33993Y19499D02*
X35992D01*
X34992D01*
Y25497D01*
X33993D01*
X39991Y19499D02*
X41990D01*
X42990Y20499D01*
Y22498D01*
X41990Y23498D01*
X39991D01*
X38991Y22498D01*
Y20499D01*
X39991Y19499D01*
X44989D02*
Y23498D01*
X47988D01*
X48988Y22498D01*
Y19499D01*
X166004Y82001D02*
Y87999D01*
X169003D01*
X170002Y86999D01*
Y85000D01*
X169003Y84000D01*
X166004D01*
X175001Y82001D02*
Y87999D01*
X172002Y85000D01*
X176000D01*
X178000Y87999D02*
Y82001D01*
X180999D01*
X181998Y83001D01*
Y86999D01*
X180999Y87999D01*
X178000D01*
X187996Y82001D02*
X183998D01*
X187996Y86000D01*
Y86999D01*
X186997Y87999D01*
X184997D01*
X183998Y86999D01*
X159004Y49999D02*
Y44001D01*
X162004D01*
X163003Y45001D01*
Y48999D01*
X162004Y49999D01*
X159004D01*
X169001Y48999D02*
X168002Y49999D01*
X166002D01*
X165003Y48999D01*
Y48000D01*
X166002Y47000D01*
X168002D01*
X169001Y46000D01*
Y45001D01*
X168002Y44001D01*
X166002D01*
X165003Y45001D01*
X174999Y44001D02*
X171001D01*
X174999Y48000D01*
Y48999D01*
X174000Y49999D01*
X172000D01*
X171001Y48999D01*
X180997Y49999D02*
X176999D01*
Y44001D01*
X180997D01*
X176999Y47000D02*
X178998D01*
X186995Y49999D02*
X182997D01*
Y47000D01*
X184996D01*
X182997D01*
Y44001D01*
X15404Y77901D02*
Y83899D01*
X18403D01*
X19402Y82900D01*
Y80900D01*
X18403Y79901D01*
X15404D01*
X25400Y83899D02*
X21402D01*
Y80900D01*
X23401Y81900D01*
X24401D01*
X25400Y80900D01*
Y78901D01*
X24401Y77901D01*
X22401D01*
X21402Y78901D01*
X27400Y83899D02*
Y77901D01*
X30399D01*
X31398Y78901D01*
Y82900D01*
X30399Y83899D01*
X27400D01*
X33398Y77901D02*
X35397D01*
X34397D01*
Y83899D01*
X33398Y82900D01*
X6504Y46999D02*
Y41001D01*
X9503D01*
X10503Y42001D01*
Y45999D01*
X9503Y46999D01*
X6504D01*
X16501Y45999D02*
X15502Y46999D01*
X13502D01*
X12502Y45999D01*
Y45000D01*
X13502Y44000D01*
X15502D01*
X16501Y43000D01*
Y42001D01*
X15502Y41001D01*
X13502D01*
X12502Y42001D01*
X18500Y41001D02*
X20500D01*
X19500D01*
Y46999D01*
X18500Y45999D01*
X27498Y46999D02*
X23499D01*
Y41001D01*
X27498D01*
X23499Y44000D02*
X25498D01*
X33496Y46999D02*
X29497D01*
Y44000D01*
X31496D01*
X29497D01*
Y41001D01*
X69504Y129999D02*
Y124001D01*
X72503D01*
X73503Y125001D01*
Y128999D01*
X72503Y129999D01*
X69504D01*
X79501Y128999D02*
X78501Y129999D01*
X76502D01*
X75502Y128999D01*
Y128000D01*
X76502Y127000D01*
X78501D01*
X79501Y126000D01*
Y125001D01*
X78501Y124001D01*
X76502D01*
X75502Y125001D01*
X81501Y124001D02*
X83500D01*
X82500D01*
Y129999D01*
X81501Y128999D01*
X86499Y124001D02*
Y128000D01*
X88498Y129999D01*
X90498Y128000D01*
Y124001D01*
Y127000D01*
X86499D01*
X92497Y129999D02*
Y124001D01*
X95496D01*
X96496Y125001D01*
Y126000D01*
X95496Y127000D01*
X92497D01*
X95496D01*
X96496Y128000D01*
Y128999D01*
X95496Y129999D01*
X92497D01*
X102504D02*
Y124001D01*
X105503D01*
X106502Y125001D01*
Y128999D01*
X105503Y129999D01*
X102504D01*
X112500Y128999D02*
X111501Y129999D01*
X109501D01*
X108502Y128999D01*
Y128000D01*
X109501Y127000D01*
X111501D01*
X112500Y126000D01*
Y125001D01*
X111501Y124001D01*
X109501D01*
X108502Y125001D01*
X118498Y124001D02*
X114500D01*
X118498Y128000D01*
Y128999D01*
X117499Y129999D01*
X115499D01*
X114500Y128999D01*
X124496D02*
X123497Y129999D01*
X121497D01*
X120498Y128999D01*
Y125001D01*
X121497Y124001D01*
X123497D01*
X124496Y125001D01*
Y127000D01*
X122497D01*
X132504Y130499D02*
Y124501D01*
X135504D01*
X136503Y125501D01*
Y129499D01*
X135504Y130499D01*
X132504D01*
X142501Y129499D02*
X141502Y130499D01*
X139502D01*
X138503Y129499D01*
Y128500D01*
X139502Y127500D01*
X141502D01*
X142501Y126500D01*
Y125501D01*
X141502Y124501D01*
X139502D01*
X138503Y125501D01*
X148499Y124501D02*
X144501D01*
X148499Y128500D01*
Y129499D01*
X147500Y130499D01*
X145500D01*
X144501Y129499D01*
X150499Y124501D02*
Y128500D01*
X152498Y130499D01*
X154497Y128500D01*
Y124501D01*
Y127500D01*
X150499D01*
X156497Y130499D02*
Y124501D01*
X159496D01*
X160495Y125501D01*
Y126500D01*
X159496Y127500D01*
X156497D01*
X159496D01*
X160495Y128500D01*
Y129499D01*
X159496Y130499D01*
X156497D01*
X41003D02*
Y124501D01*
X44002D01*
X45002Y125501D01*
Y129499D01*
X44002Y130499D01*
X41003D01*
X51000Y129499D02*
X50001Y130499D01*
X48001D01*
X47001Y129499D01*
Y128500D01*
X48001Y127500D01*
X50001D01*
X51000Y126500D01*
Y125501D01*
X50001Y124501D01*
X48001D01*
X47001Y125501D01*
X53000Y124501D02*
X54999D01*
X53999D01*
Y130499D01*
X53000Y129499D01*
X61997D02*
X60997Y130499D01*
X58998D01*
X57998Y129499D01*
Y125501D01*
X58998Y124501D01*
X60997D01*
X61997Y125501D01*
Y127500D01*
X59997D01*
X38800Y107398D02*
Y101400D01*
X41799D01*
X42799Y102400D01*
Y106398D01*
X41799Y107398D01*
X38800D01*
X48797Y106398D02*
X47797Y107398D01*
X45798D01*
X44798Y106398D01*
Y105399D01*
X45798Y104399D01*
X47797D01*
X48797Y103399D01*
Y102400D01*
X47797Y101400D01*
X45798D01*
X44798Y102400D01*
X50796Y101400D02*
X52795D01*
X51796D01*
Y107398D01*
X50796Y106398D01*
X99300Y106398D02*
Y100400D01*
X102299D01*
X103299Y101400D01*
Y105398D01*
X102299Y106398D01*
X99300D01*
X109297Y105398D02*
X108297Y106398D01*
X106298D01*
X105298Y105398D01*
Y104399D01*
X106298Y103399D01*
X108297D01*
X109297Y102399D01*
Y101400D01*
X108297Y100400D01*
X106298D01*
X105298Y101400D01*
X115295Y100400D02*
X111296D01*
X115295Y104399D01*
Y105398D01*
X114295Y106398D01*
X112296D01*
X111296Y105398D01*
X114200Y25698D02*
Y19700D01*
X117199D01*
X118199Y20700D01*
Y24698D01*
X117199Y25698D01*
X114200D01*
X124197Y24698D02*
X123197Y25698D01*
X121198D01*
X120198Y24698D01*
Y23699D01*
X121198Y22699D01*
X123197D01*
X124197Y21699D01*
Y20700D01*
X123197Y19700D01*
X121198D01*
X120198Y20700D01*
X130195Y19700D02*
X126196D01*
X130195Y23699D01*
Y24698D01*
X129195Y25698D01*
X127196D01*
X126196Y24698D01*
X136193D02*
X135193Y25698D01*
X133194D01*
X132194Y24698D01*
Y20700D01*
X133194Y19700D01*
X135193D01*
X136193Y20700D01*
X138192Y25698D02*
Y19700D01*
X141191D01*
X142191Y20700D01*
Y24698D01*
X141191Y25698D01*
X138192D01*
X56200Y27198D02*
Y21200D01*
X59199D01*
X60199Y22200D01*
Y26198D01*
X59199Y27198D01*
X56200D01*
X66197Y26198D02*
X65197Y27198D01*
X63198D01*
X62198Y26198D01*
Y25199D01*
X63198Y24199D01*
X65197D01*
X66197Y23199D01*
Y22200D01*
X65197Y21200D01*
X63198D01*
X62198Y22200D01*
X68196Y21200D02*
X70196D01*
X69196D01*
Y27198D01*
X68196Y26198D01*
X77193D02*
X76193Y27198D01*
X74194D01*
X73194Y26198D01*
Y22200D01*
X74194Y21200D01*
X76193D01*
X77193Y22200D01*
X79193Y27198D02*
Y21200D01*
X82192D01*
X83191Y22200D01*
Y26198D01*
X82192Y27198D01*
X79193D01*
M02*
