M48
;Layer_Color=9474304
;FILE_FORMAT=2:4
INCH,TZ
;TYPE=PLATED
T01F00S00C0.0394
T02F00S00C0.0433
%
T01
X4600Y3350
X5600
X6600
X7600
X8600
X10650Y3250
X11650
X12650
X13650
X14650
Y9250
X13650
X12650
X11650
X10650
X8600Y9350
X7600
X6600
X5600
X4600
T02
X6350Y1200
X7350
X12150Y1050
X13150
X16500Y6050
Y7050
X18100Y7150
Y6150
X14600Y11450
X13600
X11600Y11500
X10600
X8600Y11550
X7600
X5600Y11600
X4600
X2900Y6750
Y5750
X1150Y5700
Y6700
M30
